<?xml version="1.0" encoding="UTF-8"?><svg id="Layer_2" xmlns="http://www.w3.org/2000/svg" viewBox="0 0 195.87 296.84"><defs><style>.cls-1{fill:#020000;}.cls-1,.cls-2{stroke-width:0px;}.cls-2{fill:#cc1126;}</style></defs><g id="Layer_1-2"><path class="cls-2" d="M118.69,111.54c-.48-28.74,3.55-57.39-1.98-85.76-1.47-7.54-3.87-14.82-7.22-21.73-1.28-2.64-.81-3.5,2.14-3.49,22.82.06,45.64.11,68.46-.05,4.05-.03,3.56,2.31,3.56,4.82-.01,32.65.08,65.3-.05,97.95-.06,15.5,2.83,30.12,11.51,43.22,1.14,1.72.92,2.82-.14,4.41-8.23,12.33-11.32,26.12-11.33,40.75,0,33.32-.08,66.63.1,99.95.02,4.22-1.16,5.36-5.28,5.2-8.32-.32-16.66-.24-24.98-.06-17.3.37-29.86-7.65-39.12-21.69-3.42-5.19-5.59-10.95-7.7-16.74-9.73-26.73-19.45-53.47-29.24-80.18-.54-1.46-.57-3.29-2.66-4.57v5.07c0,23.49.11,46.98-.04,70.47-.1,14.76,3.12,28.72,9.11,42.11,2.46,5.51,2.49,5.51-3.31,5.51-21.49,0-42.98-.13-64.46.12-4.45.05-5.48-1.16-5.47-5.53.14-79.13.1-158.26.1-237.38,0-17.49-2.31-34.55-10.03-50.49C-1.09-.15.93-.02,3.36,0c14.99.15,29.98.29,44.97.41,8.16.07,16.33.27,24.48.04,3.88-.11,5.75.99,7.15,4.9,12.05,33.68,24.39,67.25,36.65,100.85.65,1.79,1.38,3.55,2.07,5.33ZM132.55,185.25c-.35.03-.69.06-1.04.09-6.66-18.28-13.31-36.56-19.97-54.84-13.72-37.68-27.45-75.35-41.16-113.03-.93-2.56-1.66-4.68-5.34-4.62-14.16.24-28.32.18-42.48.04-3.2-.03-3.59,1.11-2.84,3.83,3.27,11.82,3.98,23.92,3.97,36.12-.05,54.81-.02,109.62-.02,164.43,0,20.49.09,40.98-.08,61.47-.03,3.63.8,4.94,4.67,4.85,11.16-.26,22.32-.17,33.48-.04,3.26.04,4.54-.6,3.51-4.25-3.01-10.65-3.76-21.6-3.75-32.64.04-47.98.01-95.96.02-143.94,0-1.36.17-2.72.26-4.08,1.32,1.49,1.99,2.96,2.55,4.48,13.48,36.88,26.93,73.77,40.41,110.65,5.65,15.47,11.11,31.02,17.09,46.36,6.49,16.66,16.72,23.36,34.38,23.36,2.33,0,4.66,0,7,0q7.1,0,7.1-6.87c0-27.16.12-54.31-.04-81.46-.09-15.52,1.84-30.56,8.9-44.6.71-1.42.99-2.73.2-4.25-8.26-15.91-9.27-33.08-9.12-50.56.23-25.99,0-51.98.13-77.97.02-3.61-.88-5-4.74-4.92-11.32.23-22.65.1-33.98.07-2.37,0-4.24-.21-3.23,3.4,3.62,12.95,4.15,26.24,4.13,39.61-.07,41.32-.02,82.63-.02,123.95v5.36Z"/><path class="cls-1" d="M132.55,185.25v-5.36c0-41.32-.04-82.63.02-123.95.02-13.36-.51-26.66-4.13-39.61-1.01-3.62.86-3.41,3.23-3.4,11.33.03,22.66.16,33.98-.07,3.86-.08,4.75,1.31,4.74,4.92-.13,25.99.11,51.98-.13,77.97-.16,17.48.86,34.65,9.12,50.56.79,1.51.51,2.83-.2,4.25-7.06,14.05-8.99,29.08-8.9,44.6.16,27.15.05,54.31.04,81.46q0,6.87-7.1,6.87c-2.33,0-4.66,0-7,0-17.66,0-27.89-6.7-34.38-23.36-5.98-15.35-11.44-30.89-17.09-46.36-13.48-36.88-26.93-73.77-40.41-110.65-.55-1.52-1.22-2.99-2.55-4.48-.09,1.36-.26,2.72-.26,4.08-.01,47.98.02,95.96-.02,143.94,0,11.04.73,21.99,3.75,32.64,1.03,3.65-.25,4.28-3.51,4.25-11.16-.12-22.33-.21-33.48.04-3.87.09-4.7-1.21-4.67-4.85.16-20.49.08-40.98.08-61.47,0-54.81-.03-109.62.02-164.43.01-12.2-.69-24.3-3.97-36.12-.75-2.71-.36-3.86,2.84-3.83,14.16.14,28.32.2,42.48-.04,3.68-.06,4.41,2.05,5.34,4.62,13.71,37.68,27.44,75.36,41.16,113.03,6.66,18.28,13.31,36.56,19.97,54.84.35-.03.69-.06,1.04-.09Z"/></g></svg>