<svg width="36" height="36" viewBox="0 0 36 36" fill="none" xmlns="http://www.w3.org/2000/svg">
<path d="M31.4996 15.1204C33.2347 16.1395 34.4996 17.8237 34.4996 19.3879C34.4996 22.7465 29.3527 26.2326 22.3516 27.1654" stroke="white" stroke-width="1.5" stroke-linecap="round"/>
<path d="M18 27.4488C8.8873 27.4488 1.5 23.8398 1.5 19.3879C1.5 17.5641 3.22321 15.6645 5 14.6462M18 27.4488L14.43 24.0487M18 27.4488L13.977 30.73" stroke="white" stroke-width="1.5" stroke-linecap="round" stroke-linejoin="round"/>
<path d="M12.9582 15.622C13.1449 16.0794 13.2382 16.6067 13.2382 17.204C13.2382 17.6987 13.1635 18.156 13.0142 18.576C12.8089 19.1547 12.4682 19.6027 11.9922 19.92C11.5162 20.228 10.9422 20.382 10.2702 20.382C9.5982 20.382 9.01486 20.2094 8.5202 19.864C8.03486 19.5187 7.6942 19.052 7.4982 18.464C7.39553 18.2027 7.33486 17.8294 7.3162 17.344C7.3162 17.2507 7.36286 17.204 7.4562 17.204H8.5342C8.62753 17.204 8.6742 17.2507 8.6742 17.344C8.69286 17.68 8.7302 17.9274 8.7862 18.086C8.87953 18.4314 9.0522 18.7067 9.3042 18.912C9.56553 19.1174 9.88753 19.22 10.2702 19.22C10.9795 19.22 11.4555 18.898 11.6982 18.254C11.8195 17.974 11.8802 17.61 11.8802 17.162C11.8802 16.686 11.8055 16.2614 11.6562 15.888C11.3949 15.3094 10.9282 15.02 10.2562 15.02C10.0975 15.02 9.89686 15.09 9.6542 15.23C9.61686 15.2487 9.58886 15.258 9.5702 15.258C9.52353 15.258 9.4862 15.2347 9.4582 15.188L8.9262 14.46C8.90753 14.4227 8.8982 14.39 8.8982 14.362C8.8982 14.334 8.9122 14.3014 8.9402 14.264L11.3342 11.702C11.3622 11.6554 11.3529 11.632 11.3062 11.632H7.5822C7.48886 11.632 7.4422 11.5854 7.4422 11.492V10.61C7.4422 10.5167 7.48886 10.47 7.5822 10.47H13.0142C13.1075 10.47 13.1542 10.5167 13.1542 10.61V11.618C13.1542 11.6647 13.1309 11.7207 13.0842 11.786L10.9562 14.11C10.9375 14.1287 10.9329 14.1474 10.9422 14.166C10.9515 14.1754 10.9702 14.1847 10.9982 14.194C11.4742 14.2407 11.8755 14.39 12.2022 14.642C12.5289 14.8847 12.7809 15.2114 12.9582 15.622ZM20.356 15.44C20.6173 15.9347 20.748 16.5274 20.748 17.218C20.748 17.7874 20.6547 18.2867 20.468 18.716C20.2533 19.248 19.9173 19.6587 19.46 19.948C19.012 20.228 18.466 20.368 17.822 20.368C17.1313 20.368 16.5433 20.2094 16.058 19.892C15.582 19.5747 15.246 19.1267 15.05 18.548C14.91 18.156 14.84 17.7034 14.84 17.19V12.878C14.84 12.1127 15.106 11.5014 15.638 11.044C16.17 10.5867 16.8653 10.358 17.724 10.358C18.2747 10.358 18.76 10.4607 19.18 10.666C19.6093 10.8714 19.9407 11.1607 20.174 11.534C20.4073 11.898 20.524 12.318 20.524 12.794V13.074C20.524 13.1674 20.4773 13.214 20.384 13.214H19.32C19.2267 13.214 19.18 13.1674 19.18 13.074V12.948C19.18 12.528 19.0447 12.1874 18.774 11.926C18.5033 11.6647 18.1533 11.534 17.724 11.534C17.2667 11.534 16.8933 11.6694 16.604 11.94C16.324 12.2107 16.184 12.57 16.184 13.018V14.782C16.184 14.8007 16.1887 14.8147 16.198 14.824C16.2167 14.824 16.2353 14.8147 16.254 14.796C16.6553 14.348 17.2387 14.124 18.004 14.124C19.1053 14.124 19.8893 14.5627 20.356 15.44ZM19.194 18.296C19.334 17.9974 19.404 17.638 19.404 17.218C19.404 16.742 19.32 16.3594 19.152 16.07C18.8813 15.5287 18.424 15.258 17.78 15.258C17.4533 15.258 17.1733 15.3327 16.94 15.482C16.7067 15.622 16.5293 15.8274 16.408 16.098C16.2587 16.406 16.184 16.8027 16.184 17.288C16.184 17.68 16.2447 18.0114 16.366 18.282C16.4873 18.5807 16.6693 18.8094 16.912 18.968C17.1547 19.1174 17.4487 19.192 17.794 19.192C18.4753 19.192 18.942 18.8934 19.194 18.296ZM25.3181 20.41C24.3755 20.41 23.6241 20.144 23.0641 19.612C22.5135 19.0707 22.2381 18.3474 22.2381 17.442V13.298C22.2381 12.3927 22.5135 11.674 23.0641 11.142C23.6241 10.61 24.3755 10.344 25.3181 10.344C26.2608 10.344 27.0121 10.61 27.5721 11.142C28.1415 11.674 28.4261 12.3927 28.4261 13.298V17.442C28.4261 18.3474 28.1415 19.0707 27.5721 19.612C27.0121 20.144 26.2608 20.41 25.3181 20.41ZM25.3181 19.248C25.8595 19.248 26.2888 19.094 26.6061 18.786C26.9235 18.4687 27.0821 18.0487 27.0821 17.526V13.242C27.0821 12.7194 26.9235 12.304 26.6061 11.996C26.2888 11.6787 25.8595 11.52 25.3181 11.52C24.7955 11.52 24.3755 11.6787 24.0581 11.996C23.7408 12.304 23.5821 12.7194 23.5821 13.242V17.526C23.5821 18.0487 23.7408 18.4687 24.0581 18.786C24.3755 19.094 24.7955 19.248 25.3181 19.248Z" fill="white"/>
<circle cx="30.2083" cy="10.1056" r="1.25806" fill="white"/>
</svg>
