<svg width="32" height="38" viewBox="0 0 32 38" fill="none" xmlns="http://www.w3.org/2000/svg">
<path d="M30.4155 13.7213C30.7663 13.596 31.0004 13.2622 31 12.8881C30.9995 12.5141 30.7646 12.1809 30.4135 12.0564L16.2924 7.05034C16.1032 6.98322 15.8968 6.98322 15.7076 7.05034L1.58652 12.0564C1.23543 12.1808 1.00047 12.5141 1 12.8881C0.999532 13.2622 1.23373 13.596 1.58453 13.7213L7.17842 15.7194V21.4801C7.17842 22.4308 8.16555 23.2348 10.1124 23.8697C11.8093 24.4232 13.9003 24.7279 16.0001 24.7279C18.0998 24.7279 20.1907 24.4232 21.8877 23.8697C23.8346 23.2348 24.8217 22.4309 24.8217 21.4801V15.7194L27.1313 14.8944V21.8292C26.1042 22.1941 25.3661 23.179 25.3661 24.3344C25.3661 25.4897 26.1042 26.4746 27.1313 26.8395V28.1169C27.1313 28.6046 27.5248 29 28.0102 29C28.4956 29 28.8891 28.6046 28.8891 28.1169V26.8395C29.9162 26.4746 30.6542 25.4898 30.6542 24.3344C30.6542 23.179 29.9162 22.1941 28.8891 21.8292V14.2665L30.4155 13.7213ZM28.0101 25.2248C27.5215 25.2248 27.1239 24.8253 27.1239 24.3343C27.1239 23.8433 27.5215 23.4438 28.0101 23.4438C28.4988 23.4438 28.8964 23.8433 28.8964 24.3343C28.8964 24.8253 28.4988 25.2248 28.0101 25.2248ZM16 8.81955L27.4884 12.8924L16 16.9961L4.51158 12.8923L16 8.81955ZM23.0638 21.3469C22.8954 21.5176 22.2923 21.9262 20.9312 22.3164C19.4792 22.7325 17.7279 22.9617 16 22.9617C14.2721 22.9617 12.5208 22.7325 11.0688 22.3164C9.70768 21.9262 9.10463 21.5176 8.93617 21.3469V16.3473L15.7056 18.7654C15.8008 18.7994 15.9004 18.8164 15.9999 18.8164C16.0996 18.8164 16.1991 18.7994 16.2943 18.7654L23.0637 16.3473L23.0638 21.3469Z" fill="white"/>
</svg>
