<svg width="32" height="32" viewBox="0 0 32 32" fill="none" xmlns="http://www.w3.org/2000/svg">
<path d="M29.4544 10.4158C29.7819 10.2962 30.0004 9.97758 30 9.6205C29.9996 9.26342 29.7803 8.94539 29.4526 8.82659L16.2729 4.04805C16.0964 3.98398 15.9037 3.98398 15.7271 4.04805L2.54742 8.82659C2.21974 8.94534 2.00044 9.26342 2 9.6205C1.99956 9.97758 2.21815 10.2962 2.54556 10.4158L7.76652 12.3231V17.8219C7.76652 18.7294 8.68784 19.4969 10.5049 20.1029C12.0887 20.6312 14.0403 20.9221 16.0001 20.9221C17.9598 20.9221 19.9114 20.6312 21.4952 20.1029C23.3123 19.4969 24.2336 18.7295 24.2336 17.8219V12.3231L26.3892 11.5356V19.1551C25.4306 19.5034 24.7417 20.4436 24.7417 21.5464C24.7417 22.6493 25.4306 23.5894 26.3892 23.9378V27.157C26.3892 27.6226 26.7565 28 27.2095 28C27.6625 28 28.0298 27.6226 28.0298 27.157V23.9378C28.9884 23.5894 29.6773 22.6493 29.6773 21.5464C29.6773 20.4436 28.9884 19.5034 28.0298 19.1551V10.9362L29.4544 10.4158ZM27.2095 22.3964C26.7534 22.3964 26.3823 22.0151 26.3823 21.5464C26.3823 21.0777 26.7534 20.6964 27.2095 20.6964C27.6656 20.6964 28.0366 21.0777 28.0366 21.5464C28.0366 22.0151 27.6656 22.3964 27.2095 22.3964ZM16 5.73684L26.7225 9.62454L16 13.5417L5.27748 9.62449L16 5.73684ZM22.5929 17.6948C22.4357 17.8577 21.8728 18.2477 20.6025 18.6202C19.2473 19.0174 17.6127 19.2362 16 19.2362C14.3873 19.2362 12.7528 19.0174 11.3975 18.6202C10.1272 18.2477 9.56432 17.8577 9.40709 17.6948V12.9224L15.7252 15.2306C15.8141 15.2631 15.907 15.2793 15.9999 15.2793C16.0929 15.2793 16.1858 15.2631 16.2747 15.2306L22.5928 12.9224L22.5929 17.6948Z" fill="white"/>
</svg>
