<svg width="12" height="11" viewBox="0 0 12 11" fill="none" xmlns="http://www.w3.org/2000/svg">
<path d="M11.4386 1.42334C11.4386 0.898489 11.0131 0.473014 10.4883 0.473014L1.93535 0.473014C1.4105 0.473014 0.985024 0.898489 0.985024 1.42334C0.985024 1.94819 1.4105 2.37367 1.93535 2.37367L9.53796 2.37367L9.53796 9.97627C9.53796 10.5011 9.96343 10.9266 10.4883 10.9266C11.0131 10.9266 11.4386 10.5011 11.4386 9.97627L11.4386 1.42334ZM1.70549 8.86217C1.33437 9.23329 1.33437 9.835 1.70549 10.2061C2.07662 10.5773 2.67833 10.5773 3.04946 10.2061L1.70549 8.86217ZM9.8163 0.751358L1.70549 8.86217L3.04946 10.2061L11.1603 2.09532L9.8163 0.751358Z" fill="white"/>
</svg>
