<svg width="25" height="24" viewBox="0 0 25 24" fill="none" xmlns="http://www.w3.org/2000/svg">
<path d="M1.01432 2.22055L1.18183 2.39567L1.01432 2.22055C0.846478 2.3811 0.75 2.60128 0.75 2.83333V6.5C0.75 7.38036 1.11572 8.2223 1.76283 8.84126C2.40955 9.45987 3.28442 9.80556 4.19444 9.80556H5.09778C6.13272 12.4133 8.62332 14.3272 11.6111 14.6472V17.8611H7.38889C7.15664 17.8611 6.93179 17.9493 6.76432 18.1094C6.59648 18.27 6.5 18.4902 6.5 18.7222V22.3889C6.5 22.6209 6.59648 22.8411 6.76432 23.0017C6.93179 23.1619 7.15664 23.25 7.38889 23.25H17.6111C17.8434 23.25 18.0682 23.1619 18.2357 23.0017C18.4035 22.8411 18.5 22.6209 18.5 22.3889V18.7222C18.5 18.4902 18.4035 18.27 18.2357 18.1094C18.0682 17.9493 17.8434 17.8611 17.6111 17.8611H13.3889V14.6472C16.3773 14.3272 18.8673 12.4133 19.9022 9.80556H20.8056C21.7156 9.80556 22.5904 9.45987 23.2372 8.84126C23.8843 8.2223 24.25 7.38036 24.25 6.5V2.83333C24.25 2.60128 24.1535 2.3811 23.9857 2.22055C23.8182 2.06037 23.5934 1.97222 23.3611 1.97222H20.4167V1.61111C20.4167 1.37905 20.3202 1.15888 20.1523 0.998331C19.9849 0.838146 19.76 0.75 19.5278 0.75H5.47222C5.23997 0.75 5.01512 0.838146 4.84765 0.99833C4.67981 1.15888 4.58333 1.37905 4.58333 1.61111V1.97222H1.63889C1.40664 1.97222 1.18179 2.06037 1.01432 2.22055ZM18.6389 2.47222V7.11111C18.6389 10.3378 15.9011 12.9722 12.5 12.9722C9.0989 12.9722 6.36111 10.3378 6.36111 7.11111V2.47222H18.6389ZM20.8056 8.08333H20.4167V3.69444H22.4722V6.5C22.4722 6.91625 22.2995 7.31783 21.988 7.6157C21.6762 7.91394 21.2511 8.08333 20.8056 8.08333ZM2.52778 3.69444H4.58333V8.08333H4.19444C3.74892 8.08333 3.32376 7.91394 3.01196 7.6157C2.70055 7.31783 2.52778 6.91625 2.52778 6.5V3.69444ZM16.7222 21.5278H8.27778V19.5833H16.7222V21.5278Z" fill="white" stroke="white" stroke-width="0.5"/>
</svg>
