<svg width="32" height="32" viewBox="0 0 32 32" fill="none" xmlns="http://www.w3.org/2000/svg">
<path d="M30.4453 5.41908H29.5021C28.7556 5.41908 28.0257 5.79658 27.6586 6.12952C27.2914 6.46247 27.0619 6.92063 27.0152 7.41406L26.2886 13.4453C26.268 13.6599 26.1754 13.8613 26.026 14.0168C25.8766 14.1723 25.679 14.2727 25.4653 14.3019L21.8144 14.8846C21.3384 14.9524 20.9027 15.1892 20.587 15.5518C20.2713 15.9144 20.0966 16.3785 20.0948 16.8593L20.0948 18.5498C20.0948 18.6177 20.1082 18.6849 20.1341 18.7476C20.1601 18.8104 20.1982 18.8674 20.2462 18.9154C20.2942 18.9634 20.3512 19.0015 20.4139 19.0274C20.4767 19.0534 20.5439 19.0667 20.6118 19.0667H25.057L25.057 24.9667H22.9481C22.811 24.9667 22.6795 25.0211 22.5826 25.1181C22.4856 25.215 22.4311 25.3465 22.4311 25.4836C22.4311 25.6207 22.4856 25.7522 22.5826 25.8491C22.6795 25.9461 22.811 26.0006 22.9481 26.0006H28.1087C28.2458 26.0006 28.3773 25.9461 28.4742 25.8491C28.5712 25.7522 28.6256 25.6207 28.6256 25.4836C28.6256 25.3465 28.5712 25.215 28.4742 25.1181C28.3773 25.0211 28.2458 24.9667 28.1087 24.9667H26.0991V19.0667H27.4913C28.4115 19.0657 29.2938 18.6997 29.9445 18.049C30.5952 17.3983 30.9612 16.516 30.9622 15.5958V5.93632C30.9623 5.8684 30.949 5.80113 30.923 5.73836C30.8971 5.67558 30.859 5.61855 30.811 5.57051C30.763 5.52246 30.706 5.48436 30.6432 5.45838C30.5804 5.43239 30.5132 5.41904 30.4453 5.41908ZM29.9283 15.5958C29.9276 16.2419 29.6706 16.8614 29.2137 17.3183C28.7569 17.7751 28.1374 18.0321 27.4913 18.0328H21.1287L21.1287 16.8593C21.1296 16.6279 21.2136 16.4046 21.3654 16.23C21.5173 16.0554 21.7268 15.9413 21.9558 15.9084L25.6089 15.3263C26.0527 15.2656 26.463 15.0567 26.7733 14.7335C27.0836 14.4104 27.2757 13.9919 27.3184 13.546L28.0515 7.58688C28.0738 7.34936 28.1626 7.1939 28.3609 6.96852C28.5593 6.74313 28.8947 6.49257 29.5024 6.45326H29.9286L29.9283 15.5958Z" fill="white" stroke="white" stroke-width="0.5"/>
<path d="M1.55395 5.41908H2.49715C3.24362 5.41908 3.9735 5.79658 4.34066 6.12952C4.70782 6.46247 4.93727 6.92063 4.98399 7.41406L5.7106 13.4453C5.73125 13.6599 5.82379 13.8613 5.97322 14.0168C6.12264 14.1723 6.3202 14.2727 6.53387 14.3019L10.1849 14.8846C10.6608 14.9524 11.0965 15.1892 11.4122 15.5518C11.7279 15.9144 11.9026 16.3785 11.9044 16.8593L11.9044 18.5498C11.9044 18.6177 11.8911 18.6849 11.8651 18.7476C11.8391 18.8104 11.801 18.8674 11.753 18.9154C11.705 18.9634 11.648 19.0015 11.5853 19.0274C11.5225 19.0534 11.4553 19.0667 11.3874 19.0667H6.94222L6.94222 24.9667H9.05112C9.18822 24.9667 9.31971 25.0211 9.41666 25.1181C9.5136 25.215 9.56806 25.3465 9.56806 25.4836C9.56806 25.6207 9.5136 25.7522 9.41666 25.8491C9.31971 25.9461 9.18822 26.0006 9.05112 26.0006H3.89054C3.75344 26.0006 3.62195 25.9461 3.525 25.8491C3.42805 25.7522 3.37359 25.6207 3.37359 25.4836C3.37359 25.3465 3.42805 25.215 3.525 25.1181C3.62195 25.0211 3.75344 24.9667 3.89054 24.9667H5.90014V19.0667H4.50792C3.58768 19.0657 2.70543 18.6997 2.05473 18.049C1.40403 17.3983 1.03802 16.516 1.037 15.5958V5.93632C1.03693 5.8684 1.05024 5.80113 1.07619 5.73836C1.10214 5.67558 1.14021 5.61855 1.18822 5.57051C1.23624 5.52246 1.29325 5.48436 1.35601 5.45838C1.41876 5.43239 1.48602 5.41904 1.55395 5.41908ZM2.07089 15.5958C2.0716 16.2419 2.32858 16.8614 2.78546 17.3183C3.24233 17.7751 3.86179 18.0321 4.50792 18.0328H10.8705L10.8705 16.8593C10.8696 16.6279 10.7856 16.4046 10.6338 16.23C10.4819 16.0554 10.2724 15.9413 10.0434 15.9084L6.39031 15.3263C5.94647 15.2656 5.53616 15.0567 5.22589 14.7335C4.91561 14.4104 4.72356 13.9919 4.68084 13.546L3.94774 7.58688C3.9254 7.34936 3.83665 7.1939 3.63829 6.96852C3.43993 6.74313 3.10451 6.49257 2.49685 6.45326H2.0706L2.07089 15.5958Z" fill="white" stroke="white" stroke-width="0.5"/>
<path d="M8.27844 10.3916H23.6391" stroke="white" stroke-width="2" stroke-linecap="round"/>
<path d="M15.9581 10.9814V25.0967" stroke="white" stroke-width="2" stroke-linecap="round"/>
</svg>
