<svg width="74" height="71" viewBox="0 0 74 71" fill="none" xmlns="http://www.w3.org/2000/svg">
<path d="M65.2731 31.332C68.9327 33.7354 71.6006 37.7069 71.6006 41.3955C71.6006 49.3157 60.7449 57.5365 45.9785 59.7363" stroke="white" stroke-width="4" stroke-linecap="square"/>
<path d="M36.801 60.4037C17.5809 60.4037 2 51.8932 2 41.3949C2 37.094 6.92368 31.4153 12.4642 30.0879M36.801 60.4037L29.2712 52.3859M36.801 60.4037L28.316 68.1415" stroke="white" stroke-width="4" stroke-linecap="square" stroke-linejoin="round"/>
<path d="M34.2316 0L8.50781 15.6341L17.8619 21.3145V36.9486L34.2316 46.9023L50.6012 36.9486V21.3145L55.2783 18.4743V34.141C55.2783 35.4325 56.3252 36.4795 57.6168 36.4795C58.9083 36.4795 59.9553 35.4325 59.9553 34.141V15.6341L34.2316 0ZM50.1803 15.6341L34.2316 25.3272L18.2828 15.6341L34.2316 5.94095L50.1803 15.6341ZM45.9242 33.8739L34.2316 40.9613L22.5389 33.8739V24.1547L34.2316 31.2682L45.9242 24.1547V33.8739Z" fill="white"/>
</svg>
