<svg width="25" height="26" viewBox="0 0 25 26" fill="none" xmlns="http://www.w3.org/2000/svg">
<path d="M12.156 0C11.531 0 10.91 0.21 10.375 0.594L8.719 1.75L6.811 2H6.78L6.749 2.031C6.12324 2.17231 5.55034 2.48809 5.09671 2.94171C4.64309 3.39534 4.32731 3.96824 4.186 4.594L4.156 4.625V4.656L3.906 6.594L2.75 8.094L2.718 8.125V8.156C2.019 9.273 1.988 10.715 2.75 11.781L3.937 13.437L4.25 15.157L1.031 20.062L0 21.594H4.781L5.937 24.281L6.656 26L7.687 24.437L10.843 19.687C11.691 20.035 12.648 20.067 13.469 19.687L16.625 24.437L17.656 26L18.375 24.281L19.531 21.594H24.312L23.281 20.062L20.156 15.313L20.406 13.438L21.562 11.782L21.594 11.751V11.72C22.293 10.603 22.324 9.192 21.562 8.126L20.406 6.469L20.031 4.594H20.062C20.058 4.57 20.035 4.554 20.031 4.531C19.851 3.223 18.816 2.161 17.5 2H17.468L15.593 1.75L13.937 0.594C13.4198 0.215118 12.7971 0.00742857 12.156 0ZM12.156 2.031C12.386 2.031 12.613 2.101 12.781 2.219L14.562 3.5L14.781 3.656L15.031 3.688L17.219 4H17.249C17.699 4.05 18.011 4.363 18.062 4.813V4.875L18.469 7.094L18.499 7.313L18.656 7.5L19.937 9.281C20.176 9.613 20.207 10.176 19.906 10.656L18.5 12.625L18.468 12.875L18.156 15.063V15.093C18.1394 15.2493 18.0859 15.3994 18 15.531L17.937 15.563V15.593C17.7884 15.7715 17.5752 15.884 17.344 15.906H17.281L15 16.313L14.75 16.343L14.562 16.5L12.781 17.781C12.449 18.02 11.855 18.051 11.375 17.75L9.75 16.5L9.562 16.344L9.281 16.312L7.093 16H7.063C6.9216 15.9875 6.78528 15.9412 6.66554 15.865C6.54579 15.7887 6.44615 15.6848 6.375 15.562C6.30855 15.4467 6.26603 15.3191 6.25 15.187V15.125L5.844 12.844L5.812 12.594L5.656 12.406L4.375 10.625C4.136 10.293 4.105 9.699 4.406 9.219L5.656 7.594L5.812 7.406L5.843 7.125L6.125 5.031C6.129 5.016 6.152 5.016 6.156 5C6.21834 4.75927 6.34394 4.53961 6.51977 4.36377C6.69561 4.18794 6.91528 4.06234 7.156 4C7.172 3.996 7.172 3.973 7.187 3.969L9.281 3.687L9.531 3.657L9.75 3.5L11.531 2.219C11.699 2.102 11.926 2.031 12.156 2.031ZM19.062 17.25L20.594 19.594H18.186L17.936 20.219L17.249 21.812L15.124 18.562L15.592 18.219L17.562 17.875V17.906C17.585 17.902 17.6 17.879 17.624 17.875C18.1503 17.7991 18.6476 17.5832 19.062 17.25ZM5.25 17.281C5.68422 17.6758 6.22973 17.9269 6.812 18H6.843L8.75 18.25L9.187 18.594L7.062 21.812L6.375 20.219L6.125 19.594H3.719L5.25 17.281Z" fill="white"/>
</svg>
