<svg width="21" height="19" viewBox="0 0 21 19" fill="none" xmlns="http://www.w3.org/2000/svg">
<path d="M0.615234 6.63257V17.6964C0.615234 18.4164 1.19886 19 1.91879 19H6.87924C7.59918 19 8.1828 18.4164 8.1828 17.6964V14.9514C8.1828 14.2315 8.76643 13.6479 9.48636 13.6479H12.0144C12.7343 13.6479 13.3179 14.2315 13.3179 14.9514V17.6964C13.3179 18.4164 13.9016 19 14.6215 19H19.3117C20.0316 19 20.6152 18.4164 20.6152 17.6964V6.63257C20.6152 6.17081 20.3709 5.7435 19.973 5.50923L11.2766 0.389356C10.8684 0.149061 10.362 0.149061 9.95389 0.389355L1.25745 5.50923C0.859525 5.7435 0.615234 6.17081 0.615234 6.63257Z" fill="white"/>
</svg>
