<svg width="24" height="24" viewBox="0 0 24 24" fill="none" xmlns="http://www.w3.org/2000/svg">
<circle cx="11.8021" cy="11.8021" r="10.8021" transform="matrix(1 8.74228e-08 8.74228e-08 -1 0 23.604)" stroke="white" stroke-width="2"/>
<path d="M11.1298 16V9.32896H12.9799V16H11.1298ZM12.0592 8.46902C11.7841 8.46902 11.5481 8.37781 11.3513 8.1954C11.1573 8.01009 11.0603 7.78859 11.0603 7.5309C11.0603 7.2761 11.1573 7.0575 11.3513 6.87509C11.5481 6.68978 11.7841 6.59713 12.0592 6.59713C12.3343 6.59713 12.5688 6.68978 12.7628 6.87509C12.9597 7.0575 13.0581 7.2761 13.0581 7.5309C13.0581 7.78859 12.9597 8.01009 12.7628 8.1954C12.5688 8.37781 12.3343 8.46902 12.0592 8.46902Z" fill="white"/>
</svg>
