<svg width="33" height="33" viewBox="0 0 33 33" fill="none" xmlns="http://www.w3.org/2000/svg">
<path d="M5.66699 6.0564H12.267C13.4339 6.0564 14.5531 6.52465 15.3783 7.35814C16.2034 8.19164 16.667 9.3221 16.667 10.5008V26.0564C16.667 25.1723 16.3193 24.3245 15.7004 23.6994C15.0816 23.0743 14.2422 22.7231 13.367 22.7231H5.66699V6.0564Z" stroke="white" stroke-width="2" stroke-linecap="round" stroke-linejoin="round"/>
<path d="M27.667 6.0564H21.067C19.9 6.0564 18.7809 6.52465 17.9557 7.35814C17.1306 8.19164 16.667 9.3221 16.667 10.5008V26.0564C16.667 25.1723 17.0147 24.3245 17.6335 23.6994C18.2524 23.0743 19.0918 22.7231 19.967 22.7231H27.667V6.0564Z" stroke="white" stroke-width="2" stroke-linecap="round" stroke-linejoin="round"/>
</svg>
