<svg width="32" height="32" viewBox="0 0 32 32" fill="none" xmlns="http://www.w3.org/2000/svg">
<path d="M26.6292 11.5512V4.23877C26.6292 2.88181 25.5574 1.77783 24.2399 1.77783H8.20447C6.88696 1.77783 5.81509 2.88181 5.81509 4.23877V11.5512C4.88806 11.8898 4.22217 12.8016 4.22217 13.871V24.8632C4.22217 25.9326 4.88806 26.8444 5.81509 27.1831V28.9814C5.81509 29.4212 6.17168 29.7778 6.61155 29.7778C7.05142 29.7778 7.40801 29.4212 7.40801 28.9814V27.3242H25.0363V28.9814C25.0363 29.4212 25.3929 29.7778 25.8328 29.7778C26.2727 29.7778 26.6292 29.4212 26.6292 28.9814V27.1831C27.5563 26.8444 28.2222 25.9326 28.2222 24.8632V13.871C28.2222 12.8016 27.5563 11.8898 26.6292 11.5512ZM8.20447 3.41846H24.2399C24.679 3.41846 25.0363 3.78645 25.0363 4.23877V11.5512C23.725 11.6199 22.9066 12.8016 22.9066 13.871V15.6164H9.79739V13.871C9.79739 12.8016 8.99211 11.6091 7.40801 11.5512V4.23877C7.40801 3.78645 7.7653 3.41846 8.20447 3.41846ZM9.79739 17.257H22.9066V19.8976H9.79739V17.257ZM26.6292 24.8632C26.6292 25.3155 26.272 25.6835 25.8328 25.6835H6.61155C6.17238 25.6835 5.81509 25.3155 5.81509 24.8632V14.0005C5.81509 13.5482 6.24256 13.0005 6.99951 13.0005C7.75646 13.0005 8.20447 13.5482 8.20447 14.0005V20.5382C8.20447 21.0905 8.65218 21.5382 9.20447 21.5382H23.4995C24.0518 21.5382 24.4995 21.0905 24.4995 20.5382V14.0608C24.4995 13.6085 24.9109 12.9935 25.573 12.9935C26.2351 12.9935 26.6292 13.6085 26.6292 14.0608V24.8632Z" fill="white"/>
</svg>
