<svg width="17" height="20" viewBox="0 0 17 20" fill="none" xmlns="http://www.w3.org/2000/svg">
<path d="M7.7361 0C8.02181 0 8.30752 0 8.59386 0C8.65686 0.0106051 8.7205 0.0199625 8.7835 0.032439C9.22767 0.121023 9.68244 0.175919 10.1141 0.306299C11.3119 0.669367 12.2738 1.3955 13.0704 2.34372C13.9313 3.36867 14.4323 4.55082 14.4853 5.89392C14.524 6.87333 14.5084 7.85462 14.5165 8.83527C14.5171 8.91013 14.5165 8.98499 14.5165 9.07482C14.6543 9.07482 14.7641 9.07482 14.8733 9.07482C15.7679 9.08044 16.3237 9.62379 16.325 10.5177C16.3293 13.1809 16.3299 15.8446 16.3206 18.5077C16.32 18.7348 16.2813 18.9818 16.1852 19.1846C15.9257 19.7323 15.4591 19.9606 14.8583 19.96C10.5452 19.9562 6.23205 19.9581 1.9189 19.9581C1.73051 19.9581 1.54211 19.9606 1.35371 19.9569C1.05365 19.9506 0.779169 19.8677 0.538995 19.6805C0.142241 19.3723 -0.0012396 18.96 8.05806e-06 18.4684C0.00499868 15.8309 0.00250337 13.194 0.0031272 10.5564C0.0031272 10.4784 0.00811782 10.4005 0.0137323 10.3231C0.0605193 9.6425 0.59514 9.11662 1.28135 9.08168C1.45353 9.07295 1.62695 9.08044 1.81348 9.08044C1.81348 8.97626 1.81348 8.90576 1.81348 8.83527C1.81348 8.03615 1.81036 7.23703 1.81472 6.43853C1.81847 5.74732 1.89956 5.06673 2.11229 4.40485C2.41796 3.45289 2.94136 2.6338 3.63942 1.92513C4.4716 1.07985 5.44228 0.464128 6.60884 0.195258C6.98002 0.109794 7.36055 0.0642543 7.73672 0L7.7361 0ZM4.57578 9.06047H11.7804C11.7804 8.03365 11.7978 7.02056 11.7729 6.00871C11.7604 5.49904 11.6032 5.00934 11.3312 4.57203C10.4772 3.19899 9.25262 2.5683 7.63254 2.76543C6.07983 2.95445 4.71677 4.27821 4.592 5.83528C4.50654 6.89891 4.57578 7.97501 4.57578 9.0611V9.06047Z" fill="white"/>
</svg>
