<svg width="21" height="29" viewBox="0 0 21 29" fill="none" xmlns="http://www.w3.org/2000/svg">
<path d="M3.28643 0C8.91294 0 14.5402 0 20.1667 0C20.6818 0.222039 20.8555 0.612497 20.854 1.16911C20.8419 7.98436 20.8396 14.7996 20.857 21.6149C20.8585 22.2402 20.3933 22.6699 19.814 22.6677C14.6505 22.6488 9.48692 22.6563 4.32337 22.6571C4.20102 22.6571 4.07792 22.6556 3.95557 22.6609C2.79326 22.716 1.84091 23.694 1.81523 24.8563C1.78653 26.1704 2.80384 27.1862 4.16402 27.187C9.34645 27.1893 14.5289 27.1877 19.7121 27.1877C19.8065 27.1877 19.9009 27.184 19.9953 27.19C20.3956 27.2172 20.7256 27.4974 20.823 27.8901C20.9167 28.267 20.7362 28.6786 20.3857 28.881C20.314 28.9225 20.24 28.961 20.1675 29.0003H3.62629C3.54472 28.9807 3.46467 28.955 3.38235 28.9414C1.48897 28.6325 0.00493232 26.9151 0.00342185 24.9983C-0.00186481 17.9119 -0.000354335 10.8256 0.00342185 3.73993C0.00417708 2.055 1.09927 0.615517 2.71699 0.143495C2.90353 0.0891179 3.09611 0.0475799 3.28643 0ZM5.90484 20.8241H19.012V1.82767H5.90484V20.8241ZM4.06055 20.8385V1.82994C2.73511 1.71665 1.81448 2.55572 1.81448 3.86228C1.81372 9.64663 1.81448 15.431 1.81448 21.2153C1.81448 21.3045 1.82279 21.3936 1.82807 21.5167C2.52667 21.0779 3.25698 20.8566 4.06055 20.8385Z" fill="white"/>
<path d="M12.0068 25.8293C9.39221 25.8293 6.77683 25.8308 4.1622 25.8285C3.45908 25.8285 3.00367 25.2394 3.22722 24.6239C3.35863 24.2607 3.629 24.0643 4.00964 24.0212C4.09347 24.0114 4.17957 24.0175 4.26416 24.0175C9.42771 24.0175 14.5913 24.0175 19.7548 24.0175C19.8772 24.0175 20.0025 24.0129 20.1211 24.0371C20.5659 24.1277 20.8741 24.5416 20.8424 24.9879C20.8099 25.4449 20.4353 25.8127 19.964 25.8255C19.492 25.8376 19.02 25.8293 18.5479 25.8293C16.3676 25.8293 14.1865 25.8293 12.0061 25.8293H12.0068Z" fill="white"/>
</svg>
