<svg width="32" height="32" viewBox="0 0 32 32" fill="none" xmlns="http://www.w3.org/2000/svg">
<circle cx="16.0471" cy="10.5947" r="4.55444" stroke="white" stroke-width="2"/>
<path d="M18.5937 14.4099C21.8768 15.4835 24.2485 18.5713 24.2485 22.2131V25.9596H7.83246V22.2131C7.83246 18.5713 10.2042 15.4835 13.4872 14.4099" stroke="white" stroke-width="2" stroke-linejoin="round"/>
<path d="M19.8857 7.65657C20.5333 6.68238 21.6407 6.04028 22.8982 6.04028C24.8944 6.04028 26.5127 7.65857 26.5127 9.65483C26.5127 11.6511 24.8944 13.2694 22.8982 13.2694C21.8386 13.2694 20.8856 12.8135 20.2245 12.0872" stroke="white" stroke-width="2"/>
<path d="M24.9192 12.6826C27.5248 13.5346 29.407 15.9852 29.407 18.8754V21.8488H24.2584" stroke="white" stroke-width="2" stroke-linejoin="round"/>
<path d="M12.1143 7.65657C11.4667 6.68238 10.3593 6.04028 9.10183 6.04028C7.10557 6.04028 5.48728 7.65857 5.48728 9.65483C5.48728 11.6511 7.10557 13.2694 9.10183 13.2694C10.1614 13.2694 11.1144 12.8135 11.7755 12.0872" stroke="white" stroke-width="2"/>
<path d="M7.0808 12.6826C4.47524 13.5346 2.59299 15.9852 2.59299 18.8754V21.8488H7.74158" stroke="white" stroke-width="2" stroke-linejoin="round"/>
</svg>
