<svg width="56" height="42" viewBox="0 0 56 42" fill="none" xmlns="http://www.w3.org/2000/svg">
<path d="M29.291 40.976L31.0974 33.8456L31.3928 32.6794L30.1923 32.6021C25.7433 32.3155 21.5527 31.2238 18.2093 29.6027C14.8439 27.9709 12.4485 25.8594 11.408 23.6049L10.2106 21.0108L11.4093 18.3922C12.2104 16.642 13.8385 14.9751 16.1278 13.5505C18.4078 12.1318 21.2819 10.9931 24.4689 10.2713L25.7128 9.98955L25.1424 8.84879L21.2189 1.00172C23.4636 1.00882 25.6474 1.04507 27.6745 1.23035C30.1927 1.46053 32.3775 1.9144 34.0741 2.7691L34.08 2.77201C36.932 4.18543 38.6278 6.83076 40.2457 9.92711L40.4564 10.3304L40.8989 10.4364C44.8942 11.3942 48.4776 12.9441 51.037 14.8387C53.6182 16.7495 55 18.8828 55 21C55 23.1639 53.5522 25.3524 50.8644 27.2944C48.2017 29.2182 44.4875 30.7688 40.3851 31.6714L40.0243 31.7507L39.8017 32.0457C37.4596 35.1497 35.2673 37.8956 33.4527 39.342L33.4524 39.3422C32.3847 40.1938 31.4675 40.5939 30.6291 40.7924C30.1798 40.8988 29.7421 40.9507 29.291 40.976ZM3.50584 29.6897C3.77666 29.2565 4.00363 28.7785 4.1914 28.2774C4.91873 26.3366 5.2 23.7459 5.2 21C5.2 18.2541 4.91873 15.6634 4.1914 13.7226C4.00363 13.2215 3.77667 12.7435 3.50584 12.3103C4.07115 12.3666 4.61124 12.4514 5.12248 12.5795C6.56351 12.9405 7.69665 13.6265 8.45302 14.9673L8.4607 14.9809L8.4688 14.9943C8.93601 15.7652 9.27292 16.8579 9.51713 18.1603L10.0496 21L9.51713 23.8397C9.27292 25.1421 8.93601 26.2348 8.4688 27.0057L8.4607 27.0191L8.45302 27.0327C7.69665 28.3735 6.56351 29.0595 5.12248 29.4205C4.61124 29.5486 4.07114 29.6334 3.50584 29.6897ZM42 15.8C40.9922 15.8 40.0256 16.2004 39.313 16.913C38.6004 17.6256 38.2 18.5922 38.2 19.6C38.2 20.6078 38.6004 21.5744 39.313 22.287C40.0256 22.9996 40.9922 23.4 42 23.4C43.0078 23.4 43.9744 22.9996 44.687 22.287C45.3996 21.5744 45.8 20.6078 45.8 19.6C45.8 18.5922 45.3996 17.6256 44.687 16.913C43.9744 16.2004 43.0078 15.8 42 15.8Z" stroke="white" stroke-width="2"/>
</svg>
