<?xml version="1.0" encoding="UTF-8"?><svg id="Layer_2" xmlns="http://www.w3.org/2000/svg" viewBox="0 0 540.94 635.28"><defs><style>.cls-1{fill:#c1c1c4;}.cls-1,.cls-2,.cls-3,.cls-4,.cls-5,.cls-6,.cls-7,.cls-8,.cls-9,.cls-10,.cls-11,.cls-12,.cls-13,.cls-14{stroke-width:0px;}.cls-2{fill:#c1c3c5;}.cls-3{fill:#bfc1c4;}.cls-4{fill:#bdbfc2;}.cls-5{fill:#c1bfc3;}.cls-6{fill:#cb1227;}.cls-7{fill:#cc1126;}.cls-8{fill:#c3babe;}.cls-9{fill:#c0c2c5;}.cls-10{fill:#ca1125;}.cls-11{fill:#bfc0c3;}.cls-12{fill:#cb1126;}.cls-13{fill:#020101;}.cls-14{fill:#cb1327;}</style></defs><g id="Layer_1-2"><path class="cls-2" d="M362.73,259.13c53.34-38.69,112.31-54.15,176.8-52.28-2.13,8.22-4.8,15.93-6.05,23.87-2.31,14.72-5.01,29.54-5.34,44.37-.46,20.74.27,41.6,2.04,62.27,1.61,18.79,5.17,37.42,8.1,56.09,4.26,27.11,3.75,53.95-4.31,80.35-15.55,50.92-49.46,84.42-98.75,102.92-21.47,8.06-43.78,11.53-66.77,12.26-31.46,1-61.63-5.32-91.67-13.41-19.27-5.19-38.81-8.34-58.88-9.14-30.72-1.23-59.87,4.25-87.25,18.06-22.71,11.46-42.28,26.99-57.24,47.87-.57.8-1.31,1.47-2.62,2.91-4.55-5.03-9.15-9.72-13.31-14.77-13.05-15.84-24.45-32.83-33.62-51.2-10.97-21.98-18.69-45.01-22.09-69.5-5.17-37.19,1.03-72.42,17.09-106.12.86-1.8,1.75-3.6,2.4-5.48,3.45-10.01,10.59-14.98,21-15.7,5.11-.36,7.19-3.2,8.57-8.32,7.49-27.73,15.43-55.34,23.42-82.94,5.64-19.47,11.22-38.96,17.64-58.18,1.91-5.72,6.33-10.69,10.01-15.7,7.26-9.93,14.94-19.55,22.11-29.54,1.42-1.98,2.21-5.21,1.79-7.6-5.1-29.06,11.83-45.42,35.88-52.45,13.96-4.08,28.27-5.71,42.76-6.02.97-.02,1.93-.21,3.38-.37-1.82-5.94-3.45-11.67-5.4-17.28-.4-1.14-1.92-2.14-3.16-2.66-1.65-.7-3.53-.86-5.31-1.25-8.43-1.85-16.46-4.19-20.37-13.19-4.47-10.3-5.01-20.56-.39-30.91,6.49-14.52,18.42-22.72,32.72-28.22,2.3-.88,4.67-1.9,6.6-3.39,21.18-16.43,44.29-18.13,68.68-8.91,6.19,2.34,11.86,6.02,17.98,8.6,3.28,1.38,6.97,1.87,10.52,2.52,20.86,3.83,35.56,17.63,39.64,38.43,1.85,9.41.94,18.84-4.29,27.46-3.75,6.18-8.5,10.39-16.08,10.98-5.45.42-10.83,1.73-16.28,2.01-3.07.16-3.98,1.61-4.64,4.04-1.63,6.09-3.03,12.28-5.1,18.22-1.74,4.99-.35,7.23,4.48,9.28,21.98,9.31,42.79,20.79,62.3,34.59,2.04,1.44,4.33,2.66,5.98,4.46,1.44,1.57,2.73,3.72,3.06,5.78,2.47,15.26-.31,30.08-4.38,44.71-3.56,12.8-7.39,25.52-11.07,38.29-.27.92-.28,1.91-.58,4.2ZM291,130.23c3.49-12.86,7.11-25.64,10.37-38.52.84-3.31,2.29-4.56,5.63-4.88,6.78-.65,13.5-2.22,20.29-2.58,7.62-.41,10.71-5.16,12.58-11.39,5.65-18.88-6.29-39.79-26.97-44.9-10.1-2.49-19.24-6.26-28.49-10.77-17.81-8.7-36.51-11.04-54.72-1.3-10.05,5.37-19.72,11.41-30.13,16.18-3.67,1.68-6.9,4.68-9.82,7.59-6.7,6.7-9.85,14.86-8.93,24.47.86,9.04,4.36,13.4,13.07,15.75,4.17,1.13,8.43,1.95,12.58,3.14,1.46.42,3.57,1.23,3.95,2.35,4.02,11.91,7.76,23.92,11.75,36.47-7.34,0-13.83-.24-20.29.05-15.34.67-30.57,2.15-44.82,8.56-17.1,7.7-24.03,20.43-20.12,38.66,1.18,5.5.3,9.85-2.81,13.94-9.18,12.04-18.6,23.9-27.76,35.96-1.85,2.44-3.46,5.29-4.35,8.2-9.16,29.87-17.98,59.84-27.24,89.68-6.05,19.5-14.03,38.47-15.68,59.15-.08,1.01-1.51,2.42-2.6,2.76-5.54,1.76-11.1,3.67-16.8,4.67-4.83.85-7.39,3.43-9.48,7.55-19.14,37.73-24.52,77.39-16.67,118.85,7.16,37.83,24.82,70.67,48.51,100.56,2.62,3.3,5.35,6.52,8.13,9.89,2.84-3.18,5.05-5.9,7.5-8.37,45.77-46.01,101.5-61.57,164.59-52.4,20.82,3.03,41.19,9.1,61.76,13.78,34.02,7.73,68.22,9.6,102.53,2.27,34.61-7.4,64.92-22.85,88.4-49.87,31.62-36.38,40.33-79.29,34.46-125.97-3.07-24.43-7.4-48.71-9.98-73.19-2.76-26.22-2.68-52.58,1.19-78.77,1.48-10,3.58-19.91,5.5-30.4-66.45.46-125.39,20.83-175.92,65.31.55-18.55,4.77-35.59,10.11-52.43,5.44-17.16,10.69-34.4,9.33-52.73-.16-2.1-1.52-4.87-3.22-5.98-10.99-7.19-21.92-14.56-33.45-20.8-13.56-7.34-27.7-13.59-42-20.51Z"/><path class="cls-13" d="M291,130.23c14.3,6.92,28.45,13.17,42,20.51,11.53,6.24,22.46,13.61,33.45,20.8,1.69,1.11,3.06,3.88,3.22,5.98,1.36,18.33-3.88,35.57-9.33,52.73-5.34,16.84-9.56,33.89-10.11,52.43,50.53-44.48,109.47-64.85,175.92-65.31-1.92,10.49-4.03,20.4-5.5,30.4-3.87,26.19-3.94,52.54-1.19,78.77,2.57,24.47,6.9,48.76,9.98,73.19,5.88,46.68-2.84,89.6-34.46,125.97-23.48,27.02-53.79,42.47-88.4,49.87-34.31,7.34-68.51,5.46-102.53-2.27-20.58-4.67-40.95-10.75-61.76-13.78-63.09-9.17-118.83,6.39-164.59,52.4-2.46,2.47-4.67,5.19-7.5,8.37-2.77-3.37-5.51-6.58-8.13-9.89-23.69-29.89-41.35-62.73-48.51-100.56-7.85-41.46-2.47-81.12,16.67-118.85,2.09-4.13,4.65-6.7,9.48-7.55,5.7-1,11.26-2.91,16.8-4.67,1.08-.34,2.51-1.75,2.6-2.76,1.65-20.68,9.62-39.64,15.68-59.15,9.26-29.84,18.08-59.81,27.24-89.68.89-2.91,2.5-5.76,4.35-8.2,9.16-12.06,18.58-23.92,27.76-35.96,3.11-4.09,4-8.43,2.81-13.94-3.91-18.23,3.02-30.96,20.12-38.66,14.25-6.41,29.48-7.89,44.82-8.56,6.47-.28,12.95-.05,20.29-.05-3.99-12.55-7.73-24.56-11.75-36.47-.38-1.12-2.49-1.94-3.95-2.35-4.15-1.19-8.41-2.01-12.58-3.14-8.72-2.36-12.21-6.71-13.07-15.75-.91-9.6,2.23-17.77,8.93-24.47,2.92-2.91,6.15-5.91,9.82-7.59,10.41-4.77,20.08-10.8,30.13-16.18,18.21-9.74,36.9-7.4,54.72,1.3,9.25,4.52,18.39,8.28,28.49,10.77,20.67,5.11,32.62,26.02,26.97,44.9-1.87,6.23-4.96,10.98-12.58,11.39-6.79.36-13.5,1.94-20.29,2.58-3.34.32-4.79,1.57-5.63,4.88-3.26,12.88-6.88,25.67-10.37,38.52ZM148.63,244.97c.3.09.6.19.89.28-.2-.18-.39-.37-.59-.55-1.04-1.83-1.93-3.78-3.17-5.47-2.57-3.52-5.32-6.9-8-10.34,3.45,1.19,7.07,2.02,10.29,3.66,2.86,1.46,4.62.64,6.47-1.37,7.97-8.71,16.35-17.08,23.83-26.19,9.04-11,8.5-13.89-1.8-24.11-.11-.11-.28-.17-.43-.26-6.8-6.63-13.91-5.78-19.83,1.53-11.39,14.05-23.21,27.75-34.74,41.68-1.82,2.2-3.74,4.67-4.51,7.33-5.82,20.22-11.35,40.53-17.01,60.8-2.33,8.36-4.75,16.7-7.16,25.17,2.96.49,5.39.9,7.83,1.3,3.16.97,6.32,1.93,9.74,2.98.56-1.6,1.14-3.12,1.65-4.67,6.69-20.46,12.91-41.09,20.33-61.29,2.47-6.74,1.18-10.89-3.5-15.12-.61-.55-1.24-1.09-1.86-1.63.3-.34.61-.68.91-1.03,6.88,2.44,13.76,4.87,20.66,7.3ZM169.95,144.72c-.84.29-1.67.58-2.51.87-9.63,3.97-13.14,9.64-10.76,17.37,6.3-8.02,11.38-9.5,20.66-4.93,5.18,2.54,9.68,6.42,14.74,9.23,5.6,3.11,11.27,6.45,17.32,8.35,10.02,3.15,19.26-.63,28.11-5.24.15.15.31.29.46.44-4.27,6.48-8.64,12.9-12.74,19.5-1.09,1.76-2.2,4.23-1.82,6.08,3.42,16.94,7.03,33.84,10.9,50.68.9,3.92.59,6.86-2.04,10.05-3.57,4.34-6.54,9.18-9.76,13.8,22.2-7.91,44.35-9.25,67.15-6.6.1-1.31.32-2.29.23-3.24-1.45-16.39-2.49-32.83-4.53-49.15-1.84-14.71-5.61-29.04-11.83-42.62-1.93-4.21-4.26-7.74-9.18-9.05-2.52-.67-4.79-2.31-7.52-3.69,4.8-2.03,8.84-3.75,12.7-5.38-7.47-4.08-14.52-7.95-21.6-11.76-.81-.44-1.82-.5-2.74-.74-2.48-2.73-4.95-5.46-7.97-8.79-1.57,4.64-2.72,8.03-3.39,10.02-10.85,0-20.82-.3-30.77.08-11.2.43-22.58.05-33.2,4.75,0,0,.09-.05.09-.05ZM300.57,154.5c-1.55-1-3.09-2-4.8-3.09-1.81,2.5-3.12,4.85-4.95,6.7-2.3,2.32-2.1,4.02-.49,6.84,5.11,8.94,10.32,17.91,14.4,27.34,11.04,25.52,16.77,52.51,21.13,79.85.47,2.97,2.79,5.65,4.25,8.46.54-.22,1.07-.45,1.61-.67.06-.75.15-1.51.17-2.26.73-22.81,1.38-45.62,8.88-67.54,2.35-6.85,2.57-13.26-3.55-18.52-.69-.6-.95-1.71-1.41-2.58,3.44.23,6.9.79,10.31.56,1.95-.13,4.73-1.08,5.5-2.53,1.45-2.71-.07-5.13-2.6-7.18-12.5-10.13-26.53-17.55-41.32-23.63-2.24-.92-4.75-1.19-7.14-1.76ZM224.45,359.77c1.82-.17,3.65-.24,5.44-.54,18.28-3.02,34.73-10.79,51.2-18.93,10.08-4.99,16.03-11.61,16.24-23.01.04-2.31.35-4.69,1.04-6.88,1.08-3.41-.08-5.77-2.7-7.77-5.57-4.23-11.13-8.48-17.61-13.41,12.88-.68,24.9-1.31,37.82-1.99-18.63-9.99-37.6-14.56-58.01-12.69-7.31,1.26-14.66,2.28-21.89,3.91-2.14.48-4.69,2.21-5.7,4.09-5.94,11.06-12.31,22-16.93,33.61-5.52,13.9-7.66,28.71-7.33,44.78,6.4-.41,12.41-.79,18.43-1.17ZM129.32,401.3c-.38-.09-.77-.17-1.15-.26.16.32.31.64.47.96,1.12,1.22,2.17,2.52,3.38,3.64,25.99,24.09,56.57,39.53,90.8,48.01,6.96,1.72,14.04,2.93,21.07,4.38-64.97,6.14-121.9-12.27-171.1-56.92.63,24.6,7.58,46.05,19.07,66.39-25.36-9.62-39.16-30.33-50.95-53.42-18.18,39.4,5.93,123.29,41.27,145.64.31-.12.64-.19.92-.37,53.36-33.44,111.12-42.95,172.47-30.71,30.14,6.01,59.72,15.08,90.65,16.55,12.25.58,24.55.1,36.83.1-11.94-3.81-23.91-6.66-35.48-10.66-13.89-4.8-26.95-11.41-37.66-21.88l-.06.05c1.15.03,2.33-.08,3.46.12,13.42,2.38,26.75,5.35,40.25,7.08,24.07,3.1,48.15,3.13,71.99-2.33,44.16-10.12,75.47-47.11,78.59-91.96,1.39-20-1.22-39.55-4.74-59.04-6.45-35.68-10.52-71.45-6.49-107.74.45-4.07.92-8.14,1.36-12.01-.82-.41-1.1-.66-1.4-.68-.66-.06-1.32,0-1.98,0-21.72.42-42.01,6.56-61.37,15.87-40.37,19.42-73.97,47.77-104.49,80.08-.28.29-.29.84-.79,2.45,18.8-4.27,36.88-8.38,56.31-12.79-64.48,49.17-135.86,63.7-213.79,51.7,63.36,33.12,131.32,34.66,200.48,28.62-1.15.79-2.34,1.23-3.56,1.59-20.78,6.22-41.99,10.08-63.58,12.19-43.72,4.26-86.78.75-129.07-11.04-14.07-3.92-27.81-9.04-41.7-13.61ZM193.3,241.66c-13.63,7.41-25.94,13.95-38.06,20.82-2.24,1.27-4.33,3.61-5.46,5.95-10.25,21.16-17.27,43.47-22.88,66.23-.65,2.64,1.11,6.25,2.59,8.94,1.55,2.81,4.11,5.05,6.55,7.92,9.14-4.91,18.63-10.01,27.96-15.03,6.39,4.56,12.78,9.12,19.39,13.85.59-1.35.88-1.78.96-2.24,3.63-20.65,10.66-40.05,21.22-58.18.59-1.01.36-2.76-.01-4.01-1.81-6.19-3.95-12.28-5.66-18.5-2.28-8.27-4.28-16.62-6.61-25.74ZM302.06,47.58c-7.71-5.42-14.84-11.88-23.14-15.96-16.88-8.3-34.28-9.89-50.56,1.92-4.25,3.09-8.54,5.16-13.56,6.61-9.39,2.72-16.81,8.14-19.43,18.23-.38,1.47-.04,4.3.84,4.73,2.94,1.44,6.27,2.08,10,3.18-.59-2.74-.93-4.29-1.21-5.55,3.98-1.45,7.76-2.49,11.24-4.18,4.14-2.01,7.75-5.42,12.05-6.74,20.94-6.41,41.06-3.95,60.24,6.69,2.97,1.65,6.28,2.91,9.6,3.64,8.24,1.8,16.57,3.18,24.83,4.71,3.56-13.11-7.61-26.22-21.99-25.92.39,3.1.78,6.16,1.09,8.64ZM120.09,355.65c-2.69-4.02-4.7-6.32-5.91-8.99-1.79-3.92-4.75-5.76-8.76-6.52-10.04-1.91-21.18,2.26-25.82,11.09-3.19,6.06-4.85,12.98-6.67,19.66-.41,1.51.87,4.27,2.24,5.3,3.75,2.83,6.88,7.75,12.87,5.28,6.66,4.73,13.8-.37,20.65.94.79.15,2-.53,2.62-1.19,3.38-3.61,6.63-7.33,10.18-11.3-5.41-4.9-9.15,0-14.13,1.53-1.4-3.2-3.15-6.37-4.15-9.76-.92-3.14,1.59-5.86,4.38-5.81,3.92.07,7.84-.14,12.5-.24ZM250.15,88.86c.89-6.43,1.62-12.18,2.52-17.91.41-2.59.31-5.19-2.8-5.1-1.72.05-4.18,1.73-4.92,3.32-1.62,3.49-2.35,7.38-3.71,11.99-1.8-2.52-2.95-4.52-4.49-6.16-.9-.96-2.41-1.88-3.65-1.9-5.06-.09-10.08,4.91-8.96,9.83,2.09,9.19,4.64,18.34,7.9,27.17,2.12,5.73,8.4,8.73,13.32,7.24,1.77-.54,3.76-2.75,4.14-4.53.23-1.04-2.4-2.87-3.94-4.08-1.38-1.08-3.04-1.79-4.57-2.66,1.48-.77,3.02-1.44,4.42-2.34.96-.61,1.71-1.54,2.56-2.32-1.03-.58-2.01-1.54-3.09-1.65-2.39-.25-4.82-.08-7.23-.08-.24-.61-.49-1.23-.73-1.84,2.08-1.4,4.15-2.79,6.2-4.17-.74-1.22-1.64-2.71-2.89-4.79h9.93ZM267.28,74.82c-4.67.04-8.55,2.5-8.4,5.33.15,2.84,4.65,5.64,9.13,5.25,3.43-.3,7.31-.66,7.99-5.14.46-3.04-3.7-5.48-8.72-5.44Z"/><path class="cls-7" d="M309.91,512.75c10.71,10.46,23.77,17.08,37.66,21.88,11.57,4,23.54,6.85,35.48,10.66-12.28,0-24.58.49-36.83-.1-30.93-1.47-60.51-10.54-90.65-16.55-61.35-12.24-119.11-2.73-172.47,30.71-.27.17-.61.25-.92.36-35.34-22.34-59.45-106.24-41.27-145.63,11.79,23.09,25.58,43.8,50.95,53.42-11.49-20.35-18.44-41.79-19.07-66.39,49.2,44.65,106.13,63.06,171.1,56.92-7.03-1.45-14.11-2.66-21.07-4.38-34.23-8.48-64.81-23.92-90.8-48.01-1.21-1.12-2.26-2.42-3.38-3.64.24-.23.47-.47.69-.71,13.89,4.57,27.63,9.69,41.7,13.62,42.29,11.79,85.34,15.3,129.07,11.04,21.59-2.1,42.8-5.97,63.58-12.19,1.21-.36,2.4-.81,3.56-1.59-69.16,6.05-137.12,4.51-200.48-28.62,77.94,12,149.32-2.53,213.79-51.7-19.43,4.41-37.51,8.52-56.31,12.79.51-1.6.52-2.15.79-2.45,30.52-32.31,64.11-60.67,104.49-80.08,19.36-9.31,39.66-15.45,61.37-15.87.66-.01,1.33-.06,1.98,0,.3.03.58.27,1.4.68-.44,3.87-.91,7.94-1.36,12.01-4.03,36.29.04,72.06,6.49,107.74,3.52,19.49,6.13,39.04,4.74,59.04-3.12,44.85-34.43,81.84-78.59,91.96-23.84,5.46-47.93,5.42-71.99,2.33-13.5-1.74-26.83-4.71-40.25-7.08-1.12-.2-2.3-.08-3.45-.12-.11-.12-.22-.23-.32-.35.13.1.26.2.39.29Z"/><path class="cls-6" d="M237.53,170.38c-8.85,4.61-18.09,8.38-28.11,5.24-6.06-1.9-11.72-5.24-17.32-8.35-5.06-2.81-9.57-6.69-14.74-9.23-9.28-4.56-14.36-3.09-20.66,4.93-2.38-7.73,1.13-13.41,10.76-17.37.83-.29,1.67-.58,2.51-.88,0,0-.09.05-.09.05,9.61.11,17.53,3.92,24.83,10.12,15.95,13.55,40.92,12.63,55.88-1.72-.68-.49-1.31-1-1.99-1.44q-6.82-4.4-3.81-12.1c.12-.31.28-.6.42-.91.92.24,1.93.3,2.74.74,7.08,3.81,14.13,7.68,21.6,11.76-3.85,1.63-7.9,3.35-12.7,5.38,2.73,1.38,5,3.02,7.52,3.69,4.92,1.31,7.25,4.84,9.18,9.05,6.22,13.58,9.99,27.91,11.83,42.62,2.04,16.32,3.09,32.76,4.53,49.15.08.95-.13,1.93-.23,3.24-22.8-2.64-44.95-1.31-67.15,6.6,3.23-4.62,6.19-9.46,9.76-13.8,2.63-3.19,2.95-6.13,2.04-10.05-3.87-16.84-7.48-33.74-10.9-50.68-.37-1.85.73-4.31,1.82-6.08,4.09-6.59,8.47-13.01,12.74-19.5.19-.21.38-.41.56-.62-.34.06-.68.12-1.03.18ZM250.53,185.41c-.04.19-.09.39-.13.58-.83,0-1.71-.19-2.48.03-5.52,1.56-11.07,3.05-16.45,4.99-.88.32-1.01,2.73-1.48,4.17,1.27.12,2.75.72,3.77.27,7.82-3.39,15.83-4.56,24.26-3.05,1.01.18,2.22-.73,3.34-1.13-.6-1.19-.92-3.08-1.84-3.43-2.88-1.12-5.98-1.66-9-2.42ZM251.56,208.72l.18.56c2.31.19,4.63.6,6.92.48,1.38-.08,2.71-1,4.07-1.54-.84-1.1-1.47-2.88-2.54-3.2-8.41-2.51-16.69-2.03-24.43,2.35-1.03.58-1.21,2.68-1.78,4.07,1.42.26,2.94.98,4.25.7,4.48-.95,8.89-2.25,13.33-3.41ZM255.73,224.84c.04.2.09.4.13.61,1.16.09,2.37.42,3.47.2,1.56-.32,3.04-1.04,4.55-1.59-1.14-1.19-2.08-3.07-3.45-3.45-6.96-1.92-13.84-1.14-20.31,2.02-1.22.6-1.84,2.43-2.74,3.7,1.6.43,3.28,1.42,4.79,1.2,4.55-.65,9.04-1.76,13.55-2.69ZM257.37,239.99c.04.17.07.33.11.5.83.04,1.72.29,2.48.07,1.74-.48,3.41-1.18,5.11-1.8-1.45-1.29-2.96-3.74-4.34-3.67-5.7.29-11.39,1.18-17,2.28-1.1.22-1.82,2.36-2.72,3.61,1.59.49,3.24,1.56,4.74,1.37,3.91-.5,7.74-1.54,11.61-2.37Z"/><path class="cls-7" d="M257.87,274.54c20.41-1.87,39.38,2.7,58.01,12.69-12.92.68-24.94,1.31-37.82,1.99,6.48,4.93,12.04,9.18,17.61,13.41,2.63,2,3.78,4.36,2.7,7.77-.69,2.19-1,4.57-1.04,6.88-.21,11.4-6.16,18.03-16.24,23.01-16.46,8.14-32.91,15.91-51.2,18.93-1.79.3-3.63.36-5.44.54.32-2.81.54-5.63.97-8.43,4.33-28.33,14.93-54.03,32.45-76.8Z"/><path class="cls-9" d="M193.3,241.66c2.32,9.11,4.32,17.47,6.61,25.74,1.71,6.21,3.86,12.31,5.66,18.5.37,1.25.6,3.01.01,4.01-10.56,18.13-17.59,37.53-21.22,58.18-.08.47-.37.89-.96,2.24-6.62-4.72-13.01-9.29-19.39-13.85-9.33,5.02-18.82,10.12-27.96,15.03-2.44-2.86-5-5.11-6.55-7.92-1.48-2.69-3.24-6.3-2.59-8.94,5.6-22.75,12.63-45.07,22.88-66.23,1.13-2.34,3.21-4.67,5.46-5.95,12.12-6.88,24.43-13.42,38.06-20.82ZM187.86,256.31c-8.8,4.75-16.76,8.84-24.49,13.33-2.26,1.32-4.79,3.44-5.63,5.76-7.04,19.49-13.74,39.1-20.41,58.72-.39,1.13.09,3.01.88,3.93.46.54,2.53.25,3.53-.3,6.84-3.77,13.63-7.62,20.33-11.62,2.55-1.52,4.36-1.49,6.51.77,2.44,2.57,5.34,4.7,7.36,6.45,6.22-14.38,12.35-28.28,18.16-42.3.81-1.96.49-4.63.05-6.83-.85-4.21-2.29-8.3-3.25-12.5-1.09-4.81-1.93-9.67-3.05-15.39Z"/><path class="cls-12" d="M335.82,189.04c.46.87.71,1.98,1.41,2.58,6.12,5.26,5.9,11.67,3.55,18.52-7.5,21.91-8.15,44.73-8.88,67.54-.02.75-.11,1.51-.17,2.26-.54.22-1.07.45-1.61.67-1.46-2.81-3.78-5.49-4.25-8.46-4.36-27.34-10.09-54.33-21.13-79.85-4.08-9.43-9.29-18.4-14.4-27.34-1.62-2.83-1.81-4.52.49-6.84,1.83-1.85,3.14-4.21,4.95-6.7,1.7,1.1,3.25,2.1,4.8,3.09.13.5.1,1.18.42,1.46,4.47,3.93,9.16,7.62,13.44,11.74,7.26,6.98,14.27,14.22,21.38,21.35Z"/><path class="cls-10" d="M302.06,47.58c-.31-2.47-.7-5.54-1.09-8.64,14.38-.3,25.55,12.81,21.99,25.92-8.25-1.54-16.58-2.92-24.83-4.71-3.31-.72-6.63-1.99-9.6-3.64-19.18-10.64-39.29-13.1-60.24-6.69-4.3,1.31-7.91,4.73-12.05,6.74-3.48,1.69-7.26,2.73-11.24,4.18.27,1.25.61,2.81,1.21,5.55-3.73-1.11-7.06-1.75-10-3.18-.88-.43-1.22-3.25-.84-4.73,2.62-10.09,10.04-15.51,19.43-18.23,5.02-1.45,9.3-3.52,13.56-6.61,16.28-11.81,33.68-10.22,50.56-1.92,8.3,4.08,15.43,10.55,23.14,15.96ZM302.34,50.4l.17-.28-.22-.04.05.32Z"/><path class="cls-5" d="M127.98,237.68c-.3.34-.61.68-.91,1.03-.7,1.67-1.53,3.3-2.09,5.02-8.11,24.9-16.18,49.81-24.26,74.71-2.44-.41-4.88-.81-7.83-1.3,2.41-8.47,4.83-16.81,7.16-25.17,5.65-20.27,11.18-40.58,17.01-60.8.77-2.66,2.69-5.13,4.51-7.33,11.53-13.93,23.35-27.63,34.74-41.68,5.92-7.31,13.04-8.16,19.83-1.53-12.81,15.88-25.62,31.75-38.43,47.62-3.24,3.14-6.49,6.28-9.73,9.43Z"/><path class="cls-1" d="M257.87,274.54c-17.51,22.77-28.12,48.46-32.45,76.8-.43,2.79-.65,5.62-.97,8.43-6.02.38-12.03.76-18.43,1.17-.33-16.07,1.81-30.88,7.33-44.78,4.62-11.62,10.99-22.56,16.93-33.61,1.01-1.88,3.56-3.61,5.7-4.09,7.22-1.62,14.58-2.65,21.89-3.91Z"/><path class="cls-3" d="M120.09,355.65c-4.65.11-8.58.32-12.5.24-2.8-.05-5.3,2.67-4.38,5.81,1,3.39,2.75,6.56,4.15,9.76,4.98-1.53,8.71-6.43,14.13-1.53-3.55,3.96-6.8,7.69-10.18,11.3-.62.66-1.84,1.34-2.62,1.19-6.85-1.31-13.99,3.79-20.65-.94-5.99,2.47-9.12-2.45-12.87-5.28-1.37-1.04-2.65-3.8-2.24-5.3,1.82-6.68,3.48-13.6,6.67-19.66,4.65-8.83,15.78-13,25.82-11.09,4.01.76,6.97,2.6,8.76,6.52,1.22,2.66,3.22,4.97,5.91,8.99Z"/><path class="cls-11" d="M245.19,138.71c-.14.3-.3.6-.42.91q-3.02,7.71,3.81,12.1c.68.44,1.31.95,1.99,1.44-14.96,14.35-39.93,15.27-55.88,1.72-7.3-6.2-15.22-10.01-24.83-10.12,10.62-4.69,22-4.32,33.2-4.75,9.95-.38,19.93-.08,30.77-.08.67-1.99,1.82-5.37,3.39-10.02,3.02,3.33,5.5,6.06,7.97,8.79Z"/><path class="cls-6" d="M137.71,228.25c12.81-15.87,25.62-31.75,38.43-47.62.14.09.31.15.43.26,10.3,10.22,10.83,13.11,1.8,24.11-7.48,9.11-15.86,17.48-23.83,26.19-1.84,2.01-3.6,2.83-6.47,1.37-3.21-1.64-6.84-2.48-10.29-3.66.01-.22,0-.43-.06-.65Z"/><path class="cls-4" d="M250.15,88.86h-9.93c1.26,2.08,2.15,3.57,2.89,4.79-2.04,1.38-4.12,2.77-6.2,4.17.24.61.49,1.23.73,1.84,2.41,0,4.84-.17,7.23.08,1.08.11,2.06,1.08,3.09,1.65-.85.79-1.6,1.71-2.56,2.32-1.4.9-2.94,1.57-4.42,2.34,1.53.87,3.2,1.59,4.57,2.66,1.55,1.21,4.17,3.04,3.94,4.08-.38,1.77-2.38,3.99-4.14,4.53-4.92,1.49-11.21-1.52-13.32-7.24-3.26-8.83-5.81-17.98-7.9-27.17-1.12-4.92,3.9-9.91,8.96-9.83,1.25.02,2.75.94,3.65,1.9,1.54,1.64,2.69,3.64,4.49,6.16,1.35-4.6,2.09-8.5,3.71-11.99.74-1.59,3.2-3.28,4.92-3.32,3.11-.09,3.21,2.52,2.8,5.1-.9,5.73-1.63,11.48-2.52,17.91Z"/><path class="cls-14" d="M100.71,318.43c8.08-24.91,16.15-49.82,24.26-74.71.56-1.72,1.39-3.35,2.09-5.02.62.54,1.25,1.08,1.86,1.63,4.68,4.23,5.98,8.38,3.5,15.12-7.41,20.19-13.63,40.83-20.33,61.29-.51,1.55-1.08,3.08-1.65,4.67-3.42-1.05-6.58-2.01-9.74-2.98Z"/><path class="cls-5" d="M335.82,189.04c-7.11-7.13-14.12-14.37-21.38-21.35-4.28-4.12-8.98-7.81-13.44-11.74-.32-.28-.29-.96-.42-1.46,2.38.57,4.89.84,7.14,1.76,14.79,6.07,28.82,13.49,41.32,23.63,2.53,2.05,4.05,4.47,2.6,7.18-.78,1.45-3.55,2.39-5.5,2.53-3.41.24-6.87-.33-10.31-.56Z"/><path class="cls-4" d="M267.28,74.82c5.02-.04,9.18,2.41,8.72,5.44-.67,4.48-4.55,4.84-7.99,5.14-4.48.39-8.98-2.41-9.13-5.25-.15-2.83,3.73-5.3,8.4-5.33Z"/><path class="cls-10" d="M137.71,228.25c.05.21.08.43.06.65,2.68,3.44,5.43,6.82,8,10.34,1.23,1.69,2.12,3.64,3.17,5.47l-.32.28c-6.88-2.44-13.76-4.87-20.64-7.31,3.24-3.14,6.49-6.28,9.73-9.43Z"/><path class="cls-11" d="M169.95,144.72c-.84.29-1.67.58-2.51.88.84-.29,1.67-.58,2.51-.88Z"/><path class="cls-10" d="M148.94,244.7c.2.18.39.37.59.55-.3-.09-.6-.19-.9-.28,0,0,.31-.28.31-.28Z"/><path class="cls-7" d="M128.63,402c-.16-.32-.31-.64-.47-.96.38.09.77.17,1.16.26-.22.24-.45.48-.69.71Z"/><path class="cls-13" d="M309.91,512.75c-.13-.1-.26-.2-.39-.29.11.12.22.23.32.35,0,0,.06-.05.06-.05Z"/><path class="cls-8" d="M250.53,185.41c3.02.76,6.12,1.3,9,2.42.92.36,1.24,2.24,1.84,3.43-1.12.4-2.33,1.31-3.34,1.13-8.43-1.51-16.45-.34-24.26,3.05-1.03.44-2.5-.16-3.77-.27.47-1.44.6-3.85,1.48-4.17,5.39-1.94,10.94-3.42,16.45-4.99.77-.22,1.65-.03,2.48-.03.04-.19.09-.39.13-.58Z"/><path class="cls-8" d="M251.56,208.72c-4.44,1.17-8.84,2.46-13.33,3.41-1.31.28-2.83-.44-4.25-.7.57-1.39.75-3.49,1.78-4.07,7.73-4.38,16.01-4.86,24.43-2.35,1.07.32,1.7,2.1,2.54,3.2-1.35.54-2.69,1.46-4.07,1.54-2.29.13-4.61-.29-6.92-.48l-.18-.56Z"/><path class="cls-8" d="M255.73,224.84c-4.51.93-9,2.04-13.55,2.69-1.51.21-3.19-.77-4.79-1.2.9-1.26,1.51-3.1,2.74-3.7,6.47-3.16,13.35-3.94,20.31-2.02,1.36.38,2.31,2.26,3.45,3.45-1.51.55-2.99,1.27-4.55,1.59-1.1.22-2.31-.11-3.47-.2-.04-.2-.09-.4-.13-.61Z"/><path class="cls-8" d="M257.37,239.99c-3.86.83-7.7,1.88-11.61,2.37-1.5.19-3.16-.88-4.74-1.37.9-1.25,1.62-3.4,2.72-3.61,5.61-1.1,11.3-1.98,17-2.28,1.38-.07,2.89,2.38,4.34,3.67-1.7.61-3.38,1.32-5.11,1.8-.76.21-1.65-.04-2.48-.07-.04-.17-.07-.33-.11-.5Z"/><path class="cls-13" d="M237.53,170.38c.34-.06.68-.12,1.03-.18-.19.21-.38.41-.56.62-.16-.14-.31-.29-.46-.44Z"/><polygon class="cls-13" points="302.34 50.4 302.29 50.08 302.51 50.12 302.34 50.4"/></g></svg>