<?xml version="1.0" encoding="UTF-8"?><svg id="Layer_2" xmlns="http://www.w3.org/2000/svg" viewBox="0 0 538.42 444.62"><defs><style>.cls-1{fill:#c1c1c4;}.cls-1,.cls-2,.cls-3,.cls-4,.cls-5,.cls-6,.cls-7,.cls-8,.cls-9,.cls-10,.cls-11,.cls-12,.cls-13,.cls-14,.cls-15{stroke-width:0px;}.cls-2{fill:#c1c3c5;}.cls-3{fill:#bfc1c4;}.cls-4{fill:#bdbfc2;}.cls-5{fill:#c1bfc3;}.cls-6{fill:none;}.cls-7{fill:#cb1227;}.cls-8{fill:#cc1126;}.cls-9{fill:#c3babe;}.cls-10{fill:#c0c2c5;}.cls-11{fill:#ca1125;}.cls-12{fill:#bfc0c3;}.cls-13{fill:#cb1126;}.cls-14{fill:#020101;}.cls-15{fill:#cb1327;}</style></defs><g id="Layer_1-2"><path class="cls-6" d="M179.56,141.32c1.38-.21,2.77-.38,4.16-.52-1.39.14-2.78.31-4.16.52Z"/><polygon class="cls-6" points="167.44 144.72 167.44 144.72 167.44 144.72 167.44 144.72"/><path class="cls-6" d="M141.31,236.62c-1.98-2.6-4.04-5.15-6.04-7.73,0,0,0,0,0,0,2.01,2.58,4.06,5.13,6.04,7.73Z"/><path class="cls-6" d="M188.39,271.7c-1.09-4.81-1.93-9.67-3.05-15.39-8.8,4.75-16.76,8.84-24.49,13.33-2.26,1.32-4.79,3.44-5.63,5.76-7.04,19.49-13.74,39.1-20.41,58.72-.39,1.13.09,3.01.88,3.93.46.54,2.53.25,3.53-.3,6.84-3.77,13.63-7.62,20.33-11.62,2.55-1.52,4.36-1.49,6.51.77,2.44,2.57,5.34,4.7,7.36,6.45,6.22-14.38,12.35-28.28,18.16-42.3.81-1.96.49-4.63.05-6.83-.85-4.21-2.29-8.3-3.25-12.5Z"/><path class="cls-6" d="M173.85,180.74c-.07-.04-.15-.08-.22-.12-2.97-2.9-6.01-4.37-8.98-4.49,2.97.12,6,1.59,8.98,4.49.07.04.15.08.22.12Z"/><path class="cls-6" d="M179.56,141.32c-4.15.64-8.24,1.69-12.22,3.45h0c3.98-1.76,8.07-2.81,12.22-3.45Z"/><path class="cls-6" d="M167.39,144.74s.05-.03.05-.03c0,0,0,0,0,0,0,0-.02.01-.05.03Z"/><path class="cls-6" d="M154.13,154.79c-.07.19-.14.38-.2.58.06-.19.13-.39.2-.58Z"/><path class="cls-6" d="M125.47,237.68c.15.05.29.1.44.15-.15-.05-.29-.1-.44-.16,0,0,0,0,0,0Z"/><path class="cls-6" d="M173.62,180.62c-12.81,15.88-25.62,31.75-38.43,47.62h0c12.81-15.87,25.62-31.75,38.43-47.62Z"/><path class="cls-6" d="M146.12,244.97s0,0,0,0c0,0,.14-.12.23-.2l-.23.2Z"/><path class="cls-6" d="M166.65,144.99l-1.71.6c-1.59.66-3,1.36-4.26,2.11,1.26-.75,2.67-1.46,4.26-2.11.57-.2,1.14-.4,1.71-.6Z"/><path class="cls-6" d="M124.55,238.7c.07-.08.14-.16.22-.24-.07.08-.14.16-.22.24h0Z"/><path class="cls-6" d="M301.84,155.28c.55.12,1.1.24,1.64.39-.54-.15-1.09-.28-1.64-.39Z"/><path class="cls-6" d="M301.68,155.25c-1.2-.25-2.42-.46-3.61-.75,0,0,0,0,0,0,1.19.28,2.41.49,3.61.75Z"/><path class="cls-6" d="M203.51,360.93c6.4-.41,12.41-.79,18.43-1.17,1.82-.17,3.65-.24,5.44-.54-1.79.3-3.63.36-5.44.54-6.02.38-12.03.76-18.43,1.17Z"/><path class="cls-2" d="M27.72,391c2.09-4.13,4.65-6.7,9.48-7.55,5.7-1,11.26-2.91,16.8-4.67,1.08-.34,2.51-1.75,2.6-2.76,1.65-20.68,9.62-39.64,15.68-59.15,9.26-29.84,18.08-59.81,27.24-89.68.89-2.91,2.5-5.76,4.35-8.2,9.16-12.06,18.58-23.92,27.76-35.96,3.11-4.09,4-8.43,2.81-13.94-3.91-18.23,3.02-30.96,20.12-38.66,14.25-6.41,29.48-7.89,44.82-8.56,6.47-.28,12.95-.05,20.29-.05-3.99-12.55-7.73-24.55-11.75-36.47-.38-1.12-2.49-1.94-3.95-2.35-4.15-1.19-8.41-2.01-12.58-3.14-8.72-2.36-12.21-6.71-13.07-15.75-.91-9.6,2.23-17.77,8.93-24.47,2.92-2.91,6.15-5.91,9.82-7.59,10.41-4.77,20.08-10.8,30.13-16.18,18.21-9.74,36.9-7.4,54.72,1.3,9.25,4.52,18.39,8.28,28.49,10.77,20.67,5.11,32.62,26.02,26.97,44.9-1.87,6.23-4.96,10.98-12.58,11.39-6.79.36-13.5,1.94-20.29,2.58-3.34.32-4.79,1.57-5.63,4.88-3.26,12.88-6.88,25.67-10.37,38.52,14.3,6.92,28.45,13.17,42,20.51,11.53,6.24,22.46,13.61,33.45,20.8,1.69,1.11,3.06,3.88,3.22,5.98,1.36,18.33-3.88,35.57-9.33,52.73-5.34,16.84-9.56,33.89-10.11,52.43,50.53-44.48,109.47-64.85,175.92-65.31-1.92,10.49-4.03,20.4-5.5,30.4-3.87,26.19-3.94,52.54-1.19,78.77,2.57,24.47,6.9,48.76,9.98,73.19,1.94,15.41,2.28,30.4.74,44.88h9.75c1.84-16.92,1.06-33.99-1.64-51.16-2.93-18.67-6.49-37.3-8.1-56.09-1.77-20.67-2.5-41.53-2.04-62.27.33-14.83,3.02-29.65,5.34-44.37,1.25-7.94,3.91-15.65,6.05-23.87-64.49-1.87-123.46,13.58-176.8,52.28.31-2.28.32-3.28.58-4.2,3.68-12.77,7.51-25.49,11.07-38.29,4.07-14.63,6.85-29.45,4.38-44.71-.33-2.06-1.62-4.21-3.06-5.78-1.65-1.8-3.94-3.02-5.98-4.46-19.51-13.8-40.32-25.28-62.3-34.59-4.83-2.04-6.22-4.29-4.48-9.28,2.07-5.94,3.47-12.13,5.1-18.22.65-2.43,1.57-3.88,4.64-4.04,5.45-.28,10.83-1.59,16.28-2.01,7.58-.59,12.33-4.8,16.08-10.98,5.23-8.62,6.13-18.05,4.29-27.46-4.08-20.79-18.78-34.6-39.64-38.43-3.55-.65-7.24-1.13-10.52-2.52-6.12-2.58-11.79-6.26-17.98-8.6-24.39-9.22-47.51-7.52-68.68,8.91-1.92,1.49-4.3,2.51-6.6,3.39-14.3,5.5-26.23,13.7-32.72,28.22-4.63,10.35-4.08,20.61.39,30.91,3.9,9,11.93,11.34,20.37,13.19,1.78.39,3.65.56,5.31,1.25,1.24.52,2.76,1.53,3.16,2.66,1.96,5.61,3.58,11.33,5.4,17.28-1.45.16-2.41.35-3.38.37-14.49.31-28.81,1.94-42.76,6.02-24.05,7.03-40.98,23.38-35.88,52.45.42,2.39-.37,5.62-1.79,7.6-7.17,9.99-14.85,19.61-22.11,29.54-3.67,5.02-8.1,9.99-10.01,15.7-6.42,19.21-12,38.71-17.64,58.18-7.99,27.59-15.94,55.2-23.42,82.94-1.38,5.11-3.46,7.96-8.57,8.32-10.41.72-17.55,5.69-21,15.7-.65,1.88-1.54,3.68-2.4,5.48-7.91,16.59-13.42,33.55-16.37,50.94h9.94c3.02-18.28,8.92-36.15,17.78-53.61Z"/><path class="cls-14" d="M526.93,399.73c-3.07-24.43-7.4-48.71-9.98-73.19-2.76-26.22-2.68-52.58,1.19-78.77,1.48-10,3.58-19.91,5.5-30.4-66.45.46-125.39,20.83-175.92,65.31.55-18.55,4.77-35.59,10.11-52.43,5.44-17.16,10.69-34.4,9.33-52.73-.16-2.1-1.52-4.87-3.22-5.98-10.99-7.19-21.92-14.56-33.45-20.8-13.56-7.34-27.7-13.59-42-20.51,3.49-12.86,7.11-25.64,10.37-38.52.84-3.31,2.29-4.56,5.63-4.88,6.78-.65,13.5-2.22,20.29-2.58,7.62-.41,10.72-5.16,12.58-11.39,5.65-18.88-6.29-39.79-26.97-44.9-10.1-2.49-19.24-6.26-28.49-10.77-17.81-8.7-36.51-11.04-54.72-1.3-10.05,5.37-19.72,11.41-30.13,16.18-3.67,1.68-6.9,4.68-9.82,7.59-6.7,6.7-9.85,14.86-8.93,24.47.86,9.04,4.36,13.4,13.07,15.75,4.17,1.13,8.43,1.95,12.58,3.14,1.46.42,3.57,1.23,3.95,2.35,4.02,11.91,7.76,23.92,11.75,36.47-7.34,0-13.83-.24-20.29.05-15.34.67-30.57,2.15-44.82,8.56-17.1,7.7-24.03,20.43-20.12,38.66,1.18,5.5.3,9.85-2.81,13.94-9.18,12.04-18.6,23.9-27.76,35.96-1.85,2.44-3.46,5.29-4.35,8.2-9.16,29.87-17.98,59.84-27.24,89.68-6.05,19.5-14.03,38.47-15.68,59.15-.08,1.01-1.51,2.42-2.6,2.76-5.54,1.76-11.1,3.67-16.8,4.67-4.83.85-7.39,3.43-9.48,7.55-8.86,17.46-14.77,35.34-17.78,53.61h22.29c.02-.64.03-1.28.06-1.91.46-10.79,2.41-20.62,6.1-28.63,5.64,11.04,11.74,21.54,19.34,30.54h20.91c-5.03-13.59-7.97-27.91-8.37-43.51,21.4,19.42,44.27,33.88,68.63,43.51h52.98c-22.9-9-43.82-21.77-62.38-38.98-1.21-1.12-2.26-2.42-3.38-3.64-.16-.32-.31-.64-.47-.96.38.09.77.17,1.16.26,0,0,0,0,0,0,12.15,4,24.19,8.42,36.44,12.09,1.75.52,3.5,1.03,5.26,1.52,42.29,11.79,85.34,15.3,129.07,11.04,21.59-2.1,42.8-5.97,63.58-12.19,1.21-.36,2.4-.81,3.56-1.59-69.16,6.05-137.12,4.51-200.48-28.62,77.94,12,149.32-2.53,213.79-51.7-19.43,4.41-37.51,8.52-56.31,12.79.51-1.6.52-2.15.79-2.45,30.52-32.31,64.11-60.67,104.49-80.08,19.36-9.31,39.66-15.45,61.37-15.87.66-.01,1.33-.06,1.98,0,.3.03.58.27,1.4.68-.44,3.87-.91,7.94-1.36,12.01-4.03,36.29.04,72.06,6.49,107.74,3.52,19.49,6.13,39.04,4.74,59.04-.45,6.49-1.51,12.81-3.1,18.91h29.14c1.54-14.49,1.2-29.48-.74-44.88ZM213.74,56.56c-3.48,1.69-7.26,2.73-11.24,4.18.27,1.25.61,2.81,1.21,5.55-3.73-1.11-7.06-1.75-10-3.18-.88-.43-1.22-3.25-.84-4.73,2.62-10.09,10.04-15.51,19.43-18.23,5.02-1.45,9.3-3.52,13.56-6.61,16.28-11.81,33.68-10.22,50.56-1.92,8.3,4.08,15.43,10.55,23.14,15.96-.31-2.47-.7-5.54-1.09-8.64,14.38-.3,25.55,12.81,21.99,25.92-8.25-1.54-16.58-2.92-24.83-4.71-3.31-.72-6.63-1.99-9.6-3.64-19.18-10.64-39.29-13.1-60.24-6.69-4.3,1.31-7.91,4.73-12.05,6.74ZM273.49,80.26c-.67,4.48-4.55,4.84-7.99,5.14-4.48.39-8.98-2.41-9.13-5.25-.15-2.83,3.73-5.3,8.4-5.33,5.02-.04,9.18,2.41,8.72,5.44ZM240.6,93.65c-2.04,1.38-4.12,2.77-6.2,4.17.24.61.49,1.23.73,1.84,2.41,0,4.84-.17,7.23.08,1.08.11,2.06,1.08,3.09,1.65-.85.79-1.6,1.71-2.56,2.32-1.4.9-2.94,1.57-4.42,2.34,1.53.87,3.2,1.59,4.57,2.66,1.55,1.21,4.17,3.04,3.94,4.08-.38,1.77-2.38,3.99-4.14,4.53-4.92,1.49-11.21-1.52-13.32-7.24-3.26-8.83-5.81-17.98-7.9-27.17-1.12-4.92,3.9-9.91,8.96-9.83,1.25.02,2.75.94,3.65,1.9,1.54,1.64,2.69,3.64,4.49,6.16,1.35-4.6,2.09-8.5,3.71-11.99.74-1.59,3.2-3.28,4.92-3.32,3.11-.09,3.21,2.52,2.8,5.1-.9,5.73-1.63,11.48-2.52,17.91h-9.93c1.26,2.08,2.15,3.57,2.89,4.79ZM160.68,147.7c1.26-.75,2.67-1.46,4.26-2.11l1.71-.6c.26-.09.53-.18.79-.28h0s0,0,0,0c0,0-.02.01-.05.03-.02.01-.05.03-.05.03,3.98-1.76,8.07-2.81,12.22-3.45,1.38-.21,2.77-.38,4.16-.52,5.57-.55,11.22-.56,16.82-.77,9.95-.38,19.93-.08,30.77-.08.67-1.99,1.82-5.37,3.39-10.02,3.02,3.33,5.5,6.06,7.97,8.79.92.24,1.93.3,2.74.74,7.08,3.81,14.13,7.68,21.6,11.76-3.85,1.63-7.9,3.35-12.7,5.38,2.73,1.38,5,3.02,7.52,3.69,4.92,1.31,7.25,4.84,9.18,9.05,6.22,13.58,9.99,27.91,11.83,42.62,2.04,16.32,3.09,32.76,4.53,49.15.08.95-.13,1.93-.23,3.24-22.8-2.64-44.95-1.31-67.15,6.6,3.23-4.62,6.19-9.46,9.76-13.8,2.63-3.19,2.95-6.13,2.04-10.05-3.87-16.84-7.48-33.74-10.9-50.68-.37-1.85.73-4.31,1.82-6.08,1.02-1.65,2.06-3.29,3.12-4.92,3.16-4.89,6.42-9.72,9.62-14.58-.16-.14-.31-.29-.46-.44-8.85,4.61-18.09,8.38-28.11,5.24-6.06-1.9-11.72-5.24-17.32-8.35-5.06-2.81-9.57-6.69-14.74-9.23-9.28-4.56-14.36-3.09-20.66,4.93-.45-1.45-.69-2.83-.72-4.13-.03-1.22.13-2.37.47-3.46.06-.19.13-.39.2-.58,1.01-2.73,3.19-5.08,6.55-7.08ZM97.53,291.96c5.65-20.27,11.18-40.58,17.01-60.8.77-2.66,2.69-5.13,4.51-7.33,11.53-13.93,23.35-27.63,34.74-41.68,3.33-4.11,7.04-6.18,10.86-6.02,2.97.12,6,1.59,8.98,4.49.07.04.15.08.22.12.07.04.14.08.2.14,10.3,10.22,10.83,13.11,1.8,24.11-7.48,9.11-15.86,17.48-23.83,26.19-1.84,2.01-3.6,2.83-6.47,1.37-.4-.21-.81-.4-1.22-.58-.83-.36-1.68-.69-2.54-.99-2.15-.75-4.37-1.35-6.53-2.09,2.01,2.58,4.06,5.13,6.04,7.73.66.87,1.32,1.74,1.96,2.62,1.23,1.69,2.12,3.64,3.17,5.47.2.18.39.37.59.55-.3-.09-.6-.19-.9-.28,0,0,0,0,0,0,0,0,0,0,0,0h-.01c-6.74-2.37-13.47-4.76-20.21-7.14-.15-.05-.29-.1-.44-.15-.23.26-.47.52-.7.78-.07.08-.14.16-.22.24.62.54,1.25,1.08,1.86,1.63,4.68,4.23,5.98,8.38,3.5,15.12-7.41,20.19-13.63,40.83-20.33,61.29-.51,1.55-1.08,3.08-1.65,4.67-3.42-1.05-6.58-2.01-9.74-2.98-2.44-.41-4.88-.81-7.83-1.3,2.41-8.47,4.83-16.81,7.16-25.17ZM108.81,381.23c-.62.66-1.84,1.34-2.62,1.19-6.85-1.31-13.99,3.79-20.65-.94-5.99,2.47-9.12-2.45-12.87-5.28-1.37-1.04-2.65-3.8-2.24-5.3,1.82-6.68,3.48-13.6,6.67-19.66,4.65-8.83,15.78-13,25.82-11.09,4.01.76,6.97,2.6,8.76,6.52,1.22,2.66,3.22,4.97,5.91,8.99-4.65.11-8.58.32-12.5.24-2.8-.05-5.3,2.67-4.38,5.81,1,3.39,2.75,6.56,4.15,9.76,4.98-1.53,8.71-6.43,14.13-1.53-3.55,3.96-6.8,7.69-10.18,11.3ZM203.07,289.91c-10.56,18.13-17.59,37.53-21.22,58.18-.08.47-.37.89-.96,2.24-6.62-4.72-13.01-9.29-19.39-13.85-9.33,5.02-18.82,10.12-27.96,15.03-2.44-2.86-5-5.11-6.55-7.92-1.48-2.69-3.24-6.3-2.59-8.94,5.6-22.75,12.63-45.07,22.88-66.23,1.13-2.34,3.21-4.67,5.46-5.95,12.12-6.88,24.43-13.42,38.06-20.82,2.32,9.11,4.32,17.47,6.61,25.74,1.71,6.21,3.86,12.31,5.66,18.5.37,1.25.6,3.01.01,4.01ZM293.16,302.63c2.63,2,3.78,4.36,2.7,7.77-.69,2.19-1,4.57-1.04,6.88-.21,11.4-6.16,18.03-16.24,23.01-16.46,8.14-32.91,15.91-51.2,18.93-1.79.3-3.63.36-5.44.54-6.02.38-12.03.76-18.43,1.17-.33-16.07,1.81-30.88,7.33-44.78,4.62-11.62,10.99-22.56,16.93-33.61,1.01-1.88,3.56-3.61,5.7-4.09,7.22-1.62,14.58-2.65,21.89-3.91h0c6.38-.59,12.62-.54,18.75.1,2.45.26,4.89.61,7.31,1.06,2.42.45,4.82.99,7.22,1.62,8.37,2.21,16.59,5.54,24.74,9.91-12.92.68-24.94,1.31-37.82,1.99,6.48,4.93,12.04,9.18,17.61,13.41ZM333.31,189.04c.46.87.71,1.98,1.41,2.58,6.12,5.26,5.9,11.67,3.55,18.52-7.5,21.91-8.15,44.73-8.88,67.54-.02.75-.11,1.51-.17,2.26-.54.22-1.07.45-1.61.67-1.46-2.81-3.78-5.49-4.25-8.46-4.36-27.34-10.09-54.33-21.13-79.85-4.08-9.43-9.29-18.4-14.4-27.34-1.62-2.83-1.81-4.52.49-6.84,1.83-1.85,3.14-4.21,4.95-6.7,1.7,1.1,3.25,2.1,4.8,3.09,1.19.28,2.41.49,3.61.75.05.01.11.02.16.04.55.12,1.1.24,1.64.39.59.16,1.17.35,1.73.58,14.79,6.07,28.82,13.49,41.32,23.63,2.53,2.05,4.05,4.47,2.6,7.18-.78,1.45-3.55,2.4-5.5,2.53-3.41.24-6.87-.33-10.31-.56Z"/><path class="cls-8" d="M57.73,444.62c-7.6-9-13.7-19.49-19.34-30.54-3.69,8-5.64,17.84-6.1,28.63-.03.63-.04,1.27-.06,1.91h25.51Z"/><path class="cls-8" d="M501.63,425.71c1.39-20-1.22-39.55-4.74-59.04-6.45-35.68-10.52-71.45-6.49-107.74.45-4.07.92-8.14,1.36-12.01-.82-.41-1.1-.66-1.4-.68-.66-.06-1.32,0-1.98,0-21.72.42-42.01,6.56-61.37,15.87-40.37,19.42-73.97,47.77-104.49,80.08-.28.29-.29.84-.79,2.45,18.8-4.27,36.88-8.38,56.31-12.79-64.48,49.17-135.86,63.7-213.79,51.7,63.36,33.12,131.32,34.66,200.48,28.62-1.15.79-2.34,1.23-3.56,1.59-20.78,6.22-41.99,10.08-63.58,12.19-43.72,4.26-86.78.75-129.07-11.04-1.76-.49-3.51-1-5.26-1.52-12.25-3.67-24.28-8.09-36.44-12.09,0,0,0,0,0,0-.22.24-.45.48-.69.7,1.12,1.22,2.17,2.52,3.38,3.64,18.56,17.2,39.48,29.98,62.38,38.98h306.65c1.59-6.1,2.65-12.42,3.1-18.91Z"/><path class="cls-8" d="M70.27,401.11c.4,15.6,3.35,29.92,8.37,43.51h60.25c-24.36-9.63-47.22-24.09-68.63-43.51Z"/><path class="cls-8" d="M32.29,442.71c-.03.63-.04,1.27-.06,1.91h0c.02-.64.03-1.28.06-1.91Z"/><path class="cls-8" d="M126.81,401.3s0,0,0,0c12.16,4,24.2,8.42,36.44,12.09-12.25-3.67-24.28-8.09-36.44-12.09,0,0,0,0,0,0,0,0,0,0,0,0,0,0,0,0,0,0Z"/><path class="cls-7" d="M153.46,158.83c.03,1.31.27,2.68.72,4.13,6.3-8.02,11.38-9.5,20.66-4.93,5.18,2.54,9.68,6.42,14.74,9.23,5.6,3.11,11.27,6.45,17.32,8.35,10.02,3.15,19.26-.63,28.11-5.24.34-.06.68-.12,1.03-.18-.19.21-.38.41-.56.62,0,0,0,0,0,0-3.2,4.86-6.46,9.69-9.62,14.58-1.05,1.63-2.09,3.27-3.12,4.92-1.09,1.76-2.2,4.23-1.82,6.08,3.42,16.94,7.03,33.84,10.9,50.68.9,3.92.59,6.86-2.04,10.05-3.57,4.34-6.54,9.18-9.76,13.8,22.2-7.91,44.35-9.25,67.15-6.6.1-1.31.32-2.29.23-3.24-1.45-16.39-2.49-32.83-4.53-49.15-1.84-14.71-5.61-29.04-11.83-42.62-1.93-4.21-4.26-7.74-9.18-9.05-2.52-.67-4.79-2.31-7.52-3.69,4.8-2.03,8.84-3.75,12.7-5.38-7.47-4.08-14.52-7.95-21.6-11.76-.81-.44-1.82-.5-2.74-.74-.14.3-.3.6-.42.91q-3.02,7.71,3.81,12.1c.68.44,1.31.95,1.99,1.44-14.96,14.35-39.93,15.27-55.88,1.72-7.3-6.2-15.22-10.01-24.83-10.12h0s0,0,0,0l.05-.03s.05-.03.05-.03c-.84.29-1.67.58-2.51.88-1.59.66-3,1.36-4.26,2.11-3.36,2.01-5.54,4.36-6.55,7.08-.07.19-.14.38-.2.58-.33,1.1-.5,2.25-.47,3.46ZM262.57,238.77c-1.7.61-3.38,1.32-5.11,1.8-.76.21-1.65-.04-2.48-.07-.04-.17-.07-.33-.11-.5-3.86.83-7.7,1.88-11.61,2.37-1.12.14-2.34-.42-3.54-.92-.4-.17-.8-.33-1.2-.45.22-.31.44-.68.65-1.06.63-1.14,1.24-2.39,2.07-2.55,5.61-1.1,11.3-1.98,17-2.28,1.38-.07,2.89,2.38,4.34,3.67ZM256.82,225.65c-1.1.22-2.31-.11-3.47-.2-.04-.2-.09-.4-.13-.61-4.51.93-9,2.04-13.55,2.69-1.51.21-3.19-.77-4.79-1.2.9-1.26,1.51-3.1,2.74-3.7,6.47-3.16,13.35-3.94,20.31-2.02,1.36.38,2.31,2.26,3.45,3.45-1.51.55-2.99,1.27-4.55,1.59ZM256.15,209.76c-2.29.13-4.61-.29-6.92-.48l-.18-.56c-4.44,1.17-8.84,2.46-13.33,3.41-1.31.28-2.83-.44-4.25-.7.57-1.39.75-3.49,1.78-4.07,7.73-4.38,16.01-4.86,24.43-2.35,1.07.32,1.7,2.1,2.54,3.2-1.35.54-2.69,1.46-4.07,1.54ZM247.89,185.99c.04-.19.09-.39.13-.58,3.02.76,6.12,1.3,9,2.42.92.36,1.24,2.24,1.84,3.43-1.12.4-2.33,1.32-3.34,1.13-8.43-1.51-16.45-.34-24.26,3.05-1.03.44-2.5-.16-3.77-.27.47-1.44.6-3.85,1.48-4.17,5.39-1.94,10.94-3.42,16.45-4.99.77-.22,1.65-.03,2.48-.03Z"/><path class="cls-7" d="M167.44,144.72h0c-.26.09-.53.18-.79.28-.57.2-1.14.4-1.71.6.83-.29,1.67-.58,2.51-.88Z"/><path class="cls-7" d="M153.46,158.83c-.03-1.22.13-2.37.47-3.46-.33,1.1-.5,2.25-.47,3.46Z"/><path class="cls-7" d="M160.68,147.7c-3.36,2.01-5.54,4.36-6.55,7.08,1.01-2.73,3.19-5.08,6.55-7.08Z"/><path class="cls-7" d="M167.44,144.72c-.26.09-.53.18-.79.28.26-.09.53-.18.79-.28h0Z"/><path class="cls-7" d="M235.48,170.82h0c-3.2,4.86-6.46,9.69-9.62,14.58,3.16-4.89,6.42-9.72,9.62-14.58,0,0,0,0,0,0Z"/><path class="cls-7" d="M167.35,144.77s.02-.01.05-.03l-.05.03s0,0,0,0Z"/><path class="cls-8" d="M288.63,277.32c-2.39-.63-4.8-1.17-7.22-1.62-2.42-.45-4.85-.8-7.31-1.06-6.13-.64-12.37-.69-18.75-.1-4.38,5.69-8.32,11.57-11.85,17.62-1.76,3.03-3.42,6.1-4.97,9.21-1.55,3.12-3,6.27-4.35,9.48-5.38,12.81-9.12,26.32-11.28,40.48-.43,2.79-.65,5.62-.97,8.43,1.81-.17,3.65-.24,5.44-.54,18.28-3.02,34.73-10.79,51.2-18.93,10.08-4.99,16.03-11.61,16.24-23.01.04-2.31.35-4.69,1.04-6.88,1.08-3.41-.08-5.77-2.7-7.77-5.57-4.23-11.13-8.48-17.61-13.41,12.88-.68,24.9-1.31,37.82-1.99-8.15-4.37-16.37-7.7-24.74-9.91Z"/><path class="cls-8" d="M281.42,275.7c2.42.45,4.82.99,7.22,1.62-2.39-.63-4.8-1.17-7.22-1.62Z"/><path class="cls-8" d="M274.11,274.64c-6.13-.64-12.37-.69-18.75-.1h0s0,0,0,0c6.38-.59,12.62-.54,18.75.1Z"/><path class="cls-10" d="M197.39,267.4c-2.28-8.27-4.28-16.62-6.61-25.74-13.63,7.41-25.94,13.95-38.06,20.82-2.24,1.27-4.33,3.61-5.46,5.95-10.25,21.16-17.27,43.47-22.88,66.23-.65,2.64,1.11,6.25,2.59,8.94,1.55,2.81,4.11,5.05,6.55,7.92,9.14-4.91,18.63-10.01,27.96-15.03,6.39,4.56,12.78,9.12,19.39,13.85.59-1.35.88-1.78.96-2.24,3.63-20.65,10.66-40.05,21.22-58.18.59-1.01.36-2.76-.01-4.01-1.81-6.19-3.95-12.28-5.66-18.5ZM191.59,291.03c-5.82,14.03-11.95,27.92-18.16,42.3-2.02-1.74-4.92-3.88-7.36-6.45-2.15-2.26-3.96-2.29-6.51-.77-6.7,4-13.49,7.85-20.33,11.62-1,.55-3.07.84-3.53.3-.79-.92-1.26-2.79-.88-3.93,6.66-19.62,13.37-39.23,20.41-58.72.84-2.32,3.36-4.44,5.63-5.76,7.73-4.49,15.69-8.58,24.49-13.33,1.12,5.72,1.95,10.59,3.05,15.39.96,4.2,2.4,8.28,3.25,12.5.44,2.21.76,4.87-.05,6.83Z"/><path class="cls-13" d="M311.93,167.7c-4.28-4.12-8.98-7.81-13.44-11.74-.32-.28-.29-.96-.42-1.46,0,0,0,0,0,0,0,0,0,0,0,0-1.55-1-3.09-2-4.8-3.09-1.81,2.5-3.12,4.85-4.95,6.7-2.3,2.32-2.1,4.02-.49,6.84,5.11,8.94,10.32,17.91,14.4,27.34,11.04,25.52,16.77,52.51,21.13,79.85.47,2.97,2.79,5.65,4.25,8.46.54-.22,1.07-.45,1.61-.67.06-.75.15-1.51.17-2.26.73-22.81,1.38-45.62,8.88-67.54,2.35-6.85,2.57-13.26-3.55-18.52-.69-.6-.95-1.71-1.41-2.58-7.11-7.13-14.12-14.37-21.38-21.35Z"/><path class="cls-13" d="M298.07,154.5c-1.55-1-3.1-2-4.8-3.09,1.7,1.1,3.25,2.1,4.8,3.09,0,0,0,0,0,0Z"/><path class="cls-11" d="M286.03,56.51c2.97,1.65,6.28,2.91,9.6,3.64,8.24,1.8,16.57,3.18,24.83,4.71,3.56-13.11-7.61-26.22-21.99-25.92.39,3.1.78,6.16,1.09,8.64-7.71-5.42-14.84-11.88-23.14-15.96-16.88-8.3-34.28-9.89-50.56,1.92-4.25,3.09-8.54,5.16-13.56,6.61-9.39,2.72-16.81,8.14-19.43,18.23-.38,1.47-.04,4.3.84,4.73,2.94,1.44,6.27,2.08,10,3.18-.59-2.74-.93-4.29-1.21-5.55,3.98-1.45,7.76-2.49,11.24-4.18,4.14-2.01,7.75-5.42,12.05-6.74,20.94-6.41,41.06-3.95,60.24,6.69ZM300,50.12l-.17.28-.05-.32.22.04Z"/><path class="cls-5" d="M122.46,243.72c.56-1.72,1.39-3.35,2.09-5.02.07-.08.14-.16.22-.24.23-.26.47-.52.7-.78,0,0,0,0,0,0,0,0,0,0,0,0,0,0,0,0,0,0,3.24-3.14,6.49-6.29,9.73-9.43,12.81-15.87,25.62-31.75,38.43-47.62-2.97-2.9-6.01-4.37-8.98-4.49-3.82-.16-7.53,1.91-10.86,6.02-11.39,14.05-23.21,27.75-34.74,41.68-1.82,2.2-3.74,4.67-4.51,7.33-5.82,20.22-11.35,40.53-17.01,60.8-2.33,8.36-4.75,16.7-7.16,25.17,2.96.49,5.39.9,7.83,1.3,8.08-24.91,16.15-49.82,24.26-74.71Z"/><path class="cls-5" d="M124.77,238.46c.23-.26.47-.52.7-.78,0,0,0,0,0,0-.23.26-.46.52-.7.78Z"/><path class="cls-1" d="M222.91,351.34c2.17-14.17,5.9-27.67,11.28-40.48,1.35-3.2,2.79-6.36,4.35-9.48,1.55-3.12,3.21-6.19,4.97-9.21,3.52-6.05,7.47-11.93,11.85-17.62-7.31,1.26-14.66,2.28-21.89,3.91-2.14.48-4.69,2.21-5.7,4.09-5.94,11.06-12.31,22-16.93,33.61-5.52,13.9-7.66,28.71-7.33,44.78,6.4-.41,12.41-.79,18.43-1.17.32-2.81.54-5.63.97-8.43Z"/><path class="cls-1" d="M238.54,301.38c-1.55,3.12-3,6.27-4.35,9.48,1.35-3.2,2.79-6.36,4.35-9.48Z"/><path class="cls-1" d="M243.51,292.16c-1.76,3.03-3.42,6.1-4.97,9.21,1.55-3.12,3.21-6.19,4.97-9.21Z"/><path class="cls-1" d="M255.36,274.54h0c-4.38,5.69-8.32,11.57-11.85,17.62,3.52-6.05,7.47-11.93,11.85-17.62Z"/><path class="cls-3" d="M104.86,371.46c-1.4-3.2-3.15-6.37-4.15-9.76-.92-3.14,1.59-5.86,4.38-5.81,3.92.07,7.84-.14,12.5-.24-2.69-4.02-4.7-6.32-5.91-8.99-1.79-3.92-4.75-5.76-8.76-6.52-10.04-1.91-21.18,2.26-25.82,11.09-3.19,6.06-4.85,12.98-6.67,19.66-.41,1.51.87,4.27,2.24,5.3,3.75,2.83,6.88,7.75,12.87,5.28,6.66,4.73,13.8-.37,20.65.94.79.15,2-.53,2.62-1.19,3.38-3.61,6.63-7.33,10.18-11.3-5.41-4.9-9.15,0-14.13,1.53Z"/><path class="cls-12" d="M192.17,154.89c15.95,13.55,40.92,12.63,55.88-1.72-.68-.49-1.31-1-1.99-1.44q-6.82-4.4-3.81-12.1c.12-.31.28-.6.42-.91-2.48-2.73-4.95-5.46-7.97-8.79-1.57,4.64-2.72,8.03-3.39,10.02-10.85,0-20.82-.3-30.77.08-5.6.21-11.25.23-16.82.77-1.39.14-2.78.31-4.16.52-4.15.64-8.24,1.69-12.22,3.45,9.61.11,17.53,3.92,24.83,10.12Z"/><path class="cls-7" d="M135.2,228.25c.05.21.08.43.06.65,0,0,0,0,0,0,0,0,0,0,0,0,2.15.74,4.38,1.34,6.53,2.09.86.3,1.71.62,2.54.99.41.18.82.37,1.22.58,2.86,1.46,4.62.64,6.47-1.37,7.97-8.71,16.35-17.08,23.83-26.19,9.04-11,8.5-13.89-1.8-24.11-.06-.06-.13-.1-.2-.14-.07-.04-.15-.08-.22-.12-12.81,15.88-25.62,31.75-38.43,47.62Z"/><path class="cls-7" d="M144.33,231.98c-.83-.36-1.68-.69-2.54-.99.86.3,1.71.62,2.54.99Z"/><path class="cls-7" d="M135.26,228.89c2.15.74,4.38,1.34,6.53,2.09-2.15-.75-4.37-1.35-6.53-2.09,0,0,0,0,0,0Z"/><path class="cls-4" d="M250.16,70.95c.41-2.59.31-5.19-2.8-5.1-1.72.05-4.18,1.73-4.92,3.32-1.62,3.49-2.35,7.38-3.71,11.99-1.8-2.52-2.95-4.52-4.49-6.16-.9-.96-2.41-1.88-3.65-1.9-5.06-.09-10.08,4.91-8.96,9.83,2.09,9.19,4.64,18.34,7.9,27.17,2.12,5.73,8.4,8.73,13.32,7.24,1.77-.54,3.76-2.75,4.14-4.53.23-1.04-2.4-2.87-3.94-4.08-1.38-1.08-3.04-1.79-4.57-2.66,1.48-.77,3.02-1.44,4.42-2.34.96-.61,1.71-1.54,2.56-2.32-1.03-.58-2.01-1.54-3.09-1.65-2.39-.25-4.82-.08-7.23-.08-.24-.61-.49-1.23-.73-1.84,2.08-1.4,4.15-2.79,6.2-4.17-.74-1.22-1.64-2.71-2.89-4.79h9.93c.89-6.43,1.62-12.18,2.52-17.91Z"/><path class="cls-15" d="M122.46,243.72c-8.11,24.9-16.18,49.81-24.26,74.71,3.16.97,6.32,1.93,9.74,2.98.56-1.6,1.14-3.12,1.65-4.67,6.69-20.46,12.91-41.09,20.33-61.29,2.47-6.74,1.18-10.89-3.5-15.12-.61-.55-1.24-1.09-1.86-1.63h0s0,0,0,0c-.7,1.67-1.53,3.3-2.09,5.02Z"/><path class="cls-15" d="M126.41,240.33c-.61-.55-1.24-1.09-1.86-1.63h0c.62.54,1.25,1.08,1.86,1.63Z"/><path class="cls-5" d="M349.12,187.07c1.45-2.71-.07-5.13-2.6-7.18-12.5-10.13-26.53-17.55-41.32-23.63-.56-.23-1.14-.42-1.73-.58-.54-.15-1.09-.28-1.64-.39-.05-.01-.11-.02-.16-.04-1.2-.25-2.42-.46-3.61-.75.13.5.1,1.18.42,1.46,4.47,3.93,9.16,7.62,13.44,11.74,7.26,6.98,14.27,14.22,21.38,21.35,3.44.23,6.9.79,10.31.56,1.95-.13,4.73-1.08,5.5-2.53Z"/><path class="cls-5" d="M301.68,155.25c.05.01.11.02.16.04-.05-.01-.11-.02-.16-.04Z"/><path class="cls-4" d="M256.37,80.15c.15,2.84,4.65,5.64,9.13,5.25,3.43-.3,7.31-.66,7.99-5.14.46-3.04-3.7-5.48-8.72-5.44-4.67.04-8.55,2.5-8.4,5.33Z"/><path class="cls-11" d="M135.2,228.25h0c-3.24,3.14-6.49,6.28-9.73,9.43,0,0,0,0,0,0,.15.05.29.1.44.16,6.74,2.38,13.47,4.77,20.22,7.14l.23-.2s.08-.07.08-.07c-1.04-1.83-1.93-3.78-3.17-5.47-.64-.88-1.3-1.75-1.96-2.62-1.98-2.6-4.04-5.15-6.04-7.73.01-.22,0-.43-.06-.65Z"/><path class="cls-11" d="M146.11,244.98h.01c-6.75-2.38-13.48-4.77-20.22-7.15,6.74,2.38,13.47,4.77,20.21,7.15Z"/><path class="cls-11" d="M135.2,228.25c-3.24,3.14-6.49,6.28-9.73,9.43,0,0,0,0,0,0,0,0,0,0,0,0,3.24-3.14,6.49-6.28,9.73-9.43Z"/><path class="cls-11" d="M135.26,228.89c.01-.22,0-.43-.06-.65h0c.05.21.08.43.06.65Z"/><path class="cls-11" d="M146.13,244.97s0,0,0,0c.3.09.6.19.89.28-.2-.18-.39-.37-.59-.55l-.08.07c-.09.08-.22.19-.23.2Z"/><path class="cls-11" d="M146.13,244.97s0,0,0,0c.3.09.6.18.9.28-.3-.09-.6-.19-.89-.28,0,0,0,0,0,0Z"/><path class="cls-11" d="M146.43,244.7s-.03.03-.08.07l.08-.07Z"/><path class="cls-8" d="M125.65,401.04c.16.32.31.64.47.96.23-.23.46-.46.69-.71l-1.15-.26Z"/><path class="cls-8" d="M126.81,401.3c-.39-.08-.77-.17-1.16-.26l1.15.26s0,0,0,0Z"/><path class="cls-8" d="M126.81,401.3c-.22.24-.45.48-.69.71.24-.23.47-.47.69-.7,0,0,0,0,0,0Z"/><polygon class="cls-8" points="126.81 401.3 126.81 401.3 126.81 401.3 126.81 401.3 126.81 401.3"/><path class="cls-9" d="M227.48,195.18c1.27.12,2.75.72,3.77.27,7.82-3.39,15.83-4.56,24.26-3.05,1.01.18,2.22-.73,3.34-1.13-.6-1.19-.92-3.08-1.84-3.43-2.88-1.12-5.98-1.66-9-2.42-.04.19-.09.39-.13.58-.83,0-1.71-.19-2.48.03-5.52,1.56-11.07,3.05-16.45,4.99-.88.32-1.01,2.73-1.48,4.17Z"/><path class="cls-9" d="M257.68,205.02c-8.41-2.51-16.69-2.03-24.43,2.35-1.03.58-1.21,2.68-1.78,4.07,1.42.26,2.94.98,4.25.7,4.48-.95,8.89-2.25,13.33-3.41l.18.56c2.31.19,4.63.6,6.92.48,1.38-.08,2.71-1,4.07-1.54-.84-1.1-1.47-2.88-2.54-3.2Z"/><path class="cls-9" d="M257.92,220.61c-6.96-1.92-13.84-1.14-20.31,2.02-1.22.6-1.84,2.43-2.74,3.7,1.6.43,3.28,1.42,4.79,1.2,4.55-.65,9.04-1.76,13.55-2.69.04.2.09.4.13.61,1.16.09,2.37.42,3.47.2,1.56-.32,3.04-1.04,4.55-1.59-1.14-1.19-2.08-3.07-3.45-3.45Z"/><path class="cls-9" d="M258.23,235.1c-5.7.29-11.39,1.18-17,2.28-.82.16-1.44,1.41-2.07,2.55-.21.38-.42.75-.65,1.06.4.12.8.28,1.2.45,1.21.5,2.42,1.06,3.54.92,3.91-.5,7.74-1.54,11.61-2.37.04.17.07.33.11.5.83.04,1.72.29,2.48.07,1.74-.48,3.41-1.18,5.11-1.8-1.45-1.29-2.96-3.74-4.34-3.67Z"/><path class="cls-9" d="M239.16,239.93c-.21.38-.42.75-.65,1.06.4.12.8.28,1.2.45-.4-.17-.8-.33-1.2-.45.22-.31.44-.68.65-1.06Z"/><path class="cls-14" d="M236.04,170.2c-.34.06-.68.12-1.03.18.15.15.31.29.46.44.19-.21.38-.41.56-.62Z"/><path class="cls-14" d="M235.02,170.38c.15.15.31.29.46.44h0c-.16-.14-.31-.29-.46-.44Z"/><polygon class="cls-14" points="300 50.12 299.78 50.08 299.83 50.4 300 50.12"/></g></svg>